<?xml version="1.0" encoding="utf-8"?>
<!-- Generator: Adobe Illustrator 17.0.0, SVG Export Plug-In . SVG Version: 6.00 Build 0)  -->
<!DOCTYPE svg PUBLIC "-//W3C//DTD SVG 1.1//EN" "http://www.w3.org/Graphics/SVG/1.1/DTD/svg11.dtd">
<svg version="1.1" id="Layer_1" xmlns="http://www.w3.org/2000/svg" xmlns:xlink="http://www.w3.org/1999/xlink" x="0px" y="0px"
	 width="297.667px" height="226.667px" viewBox="0 0 297.667 226.667" enable-background="new 0 0 297.667 226.667"
	 xml:space="preserve">
<g>
	<g>
		<path fill="#4C4C4C" d="M126.105,168.379h-10c-0.552,0-1-0.447-1-1v-10c0-0.553,0.448-1,1-1h10c0.552,0,1,0.447,1,1v10
			C127.105,167.932,126.657,168.379,126.105,168.379z M117.105,166.379h8v-8h-8V166.379z"/>
		<path fill="#4C4C4C" d="M150.105,148.379h-10c-0.552,0-1-0.447-1-1v-10c0-0.553,0.448-1,1-1h10c0.552,0,1,0.447,1,1v10
			C151.105,147.932,150.657,148.379,150.105,148.379z M141.105,146.379h8v-8h-8V146.379z"/>
		<path fill="#4C4C4C" d="M150.105,188.379h-10c-0.552,0-1-0.447-1-1v-10c0-0.553,0.448-1,1-1h10c0.552,0,1,0.447,1,1v10
			C151.105,187.932,150.657,188.379,150.105,188.379z M141.105,186.379h8v-8h-8V186.379z"/>
		<rect x="120.105" y="168.379" fill="#4C4C4C" width="2" height="14"/>
		<rect x="120.105" y="141.379" fill="#4C4C4C" width="2" height="15"/>
		<path fill="#4C4C4C" d="M121.105,142.379c-2.206,0-4-1.794-4-4c0-2.206,1.794-4,4-4c2.206,0,4,1.794,4,4
			C125.105,140.586,123.311,142.379,121.105,142.379z M121.105,136.379c-1.103,0-2,0.897-2,2c0,1.102,0.897,2,2,2s2-0.898,2-2
			C123.105,137.277,122.208,136.379,121.105,136.379z"/>
		<path fill="#4C4C4C" d="M121.105,189.379c-2.206,0-4-1.794-4-4c0-2.206,1.794-4,4-4c2.206,0,4,1.794,4,4
			C125.105,187.586,123.311,189.379,121.105,189.379z M121.105,183.379c-1.103,0-2,0.897-2,2c0,1.102,0.897,2,2,2s2-0.898,2-2
			C123.105,184.277,122.208,183.379,121.105,183.379z"/>
		<path fill="#4C4C4C" d="M125.105,157.379h-2c0-8.972,7.907-16,18-16v2C132.133,143.379,125.105,149.529,125.105,157.379z"/>
		<path fill="#4C4C4C" d="M141.105,183.379c-10.093,0-18-7.028-18-16h2c0,7.851,7.028,14,16,14V183.379z"/>
		<rect x="141" y="139" fill="#FFFFFF" width="8" height="8"/>
		<rect x="117" y="159" fill="#FFFFFF" width="8" height="8"/>
		<rect x="141" y="179" fill="#FFFFFF" width="8" height="8"/>
		<ellipse fill="#FFFFFF" cx="121.117" cy="138.294" rx="2.166" ry="2.085"/>
		<ellipse fill="#FFFFFF" cx="121.117" cy="185.294" rx="2.166" ry="2.085"/>
	</g>
	<g>
		<path fill="#FFFFFF" d="M94.743,118.143l-50.335,50.914c0,0,11.118-0.168,14.724-6.121c3.606-5.953,2.796-7.421,2.796-7.421
			s13.894-3.193,19.519-14.507C84.186,136.879,94.743,118.143,94.743,118.143z"/>
		<path fill="#FFFFFF" d="M94.606,118.009l-50.062,51.182c0,0-0.019-11.12,5.873-14.825c5.891-3.705,7.373-2.92,7.373-2.92
			s2.96-13.946,14.177-19.759C76.05,128.879,94.606,118.009,94.606,118.009z"/>
		<path fill="#4C4C4C" d="M62.435,156.407c-0.263,0-0.518-0.104-0.708-0.293l-4.663-4.668c-0.229-0.23-0.333-0.557-0.278-0.877
			c2.971-17.273,34.406-32.814,37.819-32.814c0.552,0,1,0.447,1,1c0,3.288-16.106,34.588-32.994,37.637
			C62.554,156.402,62.494,156.407,62.435,156.407z M58.853,150.406l3.912,3.916c14.361-3.102,27.667-27.505,30.352-34.092
			C86.497,122.871,61.834,136.072,58.853,150.406z"/>
		<path fill="#4C4C4C" d="M43.606,170.754c-0.552,0-1-0.447-1-1c0-4.786,4.078-13.999,6.948-16.875
			c1.446-1.445,3.489-2.273,5.605-2.273c2.084,0,4.005,0.773,5.411,2.178c2.911,2.916,2.787,7.779-0.276,10.841
			C57.483,166.44,48.889,170.754,43.606,170.754z M55.159,152.606c-1.591,0-3.118,0.615-4.19,1.687
			c-2.112,2.116-5.77,9.71-6.298,14.399c4.744-0.52,11.926-4.194,14.209-6.481c2.245-2.244,2.371-5.914,0.275-8.014
			C58.129,153.171,56.71,152.606,55.159,152.606z"/>
		
			<rect x="60.799" y="143.925" transform="matrix(0.7071 0.7072 -0.7072 0.7071 122.3466 -5.4914)" fill="#4C4C4C" width="14.004" height="2"/>
	</g>
	<g>
		<path fill="#FFFFFF" stroke="#3B434F" stroke-width="2" stroke-miterlimit="10" d="M114.329,73.028v9.55
			c0,0.966-0.79,1.756-1.756,1.756H78.996c-0.966,0-1.756-0.79-1.756-1.756V35.779c0-0.966,0.79-1.756,1.756-1.756h27.864
			l7.469,7.469v17.156"/>
		<path fill="#FFFFFF" stroke="#3B434F" stroke-width="2" stroke-miterlimit="10" d="M114.329,41.534h-6.101
			c-0.725,0-1.317-0.593-1.317-1.317v-6.194"/>
		
			<line fill="#FFFFFF" stroke="#3B434F" stroke-width="2" stroke-miterlimit="10" x1="82.216" y1="41.534" x2="100.22" y2="41.534"/>
		<line fill="#FFFFFF" stroke="#3B434F" stroke-width="2" stroke-miterlimit="10" x1="82.216" y1="46.92" x2="109.513" y2="46.92"/>
		
			<line fill="#FFFFFF" stroke="#3B434F" stroke-width="2" stroke-miterlimit="10" x1="82.216" y1="52.543" x2="109.513" y2="52.543"/>
		
			<line fill="#FFFFFF" stroke="#3B434F" stroke-width="2" stroke-miterlimit="10" x1="82.216" y1="58.165" x2="109.513" y2="58.165"/>
		<path fill="#FFFFFF" stroke="#3B434F" stroke-width="2" stroke-miterlimit="10" d="M118.951,66.862c0,0-14.511,7.922-16.024,8.68
			c-1.512,0.757-4.463-0.087-4.463-0.087s0.247-3.23,2.099-4.242c1.852-1.012,16.024-8.68,16.024-8.68L118.951,66.862z"/>
		
			<rect x="122.673" y="55.547" transform="matrix(0.4725 0.8813 -0.8813 0.4725 119.705 -78.0994)" fill="#FFFFFF" stroke="#3B434F" stroke-width="2" stroke-miterlimit="10" width="4.853" height="10.817"/>
		<polyline fill="#FFFFFF" stroke="#3B434F" stroke-width="2" stroke-miterlimit="10" points="129.107,61.561 130.397,64.011 
			120.592,69.195 		"/>
		
			<line fill="#FFFFFF" stroke="#3B434F" stroke-width="2" stroke-miterlimit="10" x1="82.216" y1="75.618" x2="91.218" y2="75.618"/>
	</g>
	<g>
		<path fill="#3B434F" d="M196.143,87.868c-1.375,2.9-4.039,3.405-6.707,1.298c-0.695-0.549-1.263-0.821-2.211-0.653
			c-1.961,0.346-3.249-0.806-4.156-2.396c-0.298-0.523-0.577-0.691-1.185-0.657c-2.076,0.115-3.484-0.793-4.218-2.774
			c-0.304-0.819-0.779-1.279-1.542-1.677c-2.596-1.354-3.359-3.024-2.959-5.913c0.04-0.288-0.32-0.739-0.613-0.95
			c-4.502-3.247-9.024-6.467-13.541-9.693c-1.342-0.959-1.406-1.295-0.499-2.673c3.692-5.612,7.382-11.225,11.078-16.834
			c0.873-1.325,1.23-1.345,2.558-0.492c2.179,1.4,4.388,2.754,6.613,4.079c0.316,0.188,0.861,0.268,1.182,0.128
			c4.09-1.78,8.41-2.63,12.785-3.309c1.253-0.195,2.466-0.631,3.709-0.906c1.914-0.424,3.798-0.256,5.56,0.604
			c3.538,1.728,7.056,3.496,10.558,5.295c0.699,0.359,1.256,0.456,2.025,0.143c3.918-1.596,7.865-3.119,11.805-4.661
			c1.428-0.559,1.847-0.36,2.373,1.086c2.271,6.24,4.543,12.48,6.812,18.721c0.592,1.629,0.492,1.882-1.048,2.652
			c-3.784,1.893-7.565,3.793-11.361,5.663c-0.609,0.3-0.931,0.629-0.971,1.374c-0.136,2.532-1.582,4.09-4.103,4.503
			c-0.693,0.114-1.106,0.301-1.341,1.1c-0.574,1.952-2.014,3.073-3.991,3.48c-0.674,0.139-1.091,0.381-1.401,1.101
			c-0.867,2.011-2.572,2.866-4.7,3.035c-0.369,0.029-0.855,0.235-1.052,0.52c-1.026,1.491-2.433,1.868-4.12,1.605
			c-1.882-0.293-3.339-1.405-4.819-2.476C196.519,88.086,196.36,88.001,196.143,87.868z M181.355,72.337
			c0.143-0.076,0.304-0.155,0.459-0.245c2.638-1.551,4.826-0.726,5.756,1.681c0.084,0.216,0.528,0.336,0.827,0.418
			c0.729,0.2,1.658,0.13,2.175,0.563c1.781,1.492,3.503,3.076,5.084,4.777c1.058,1.138,1.003,2.664,0.787,4.163
			c-0.074,0.515-0.048,1.303,0.267,1.569c1.111,0.936,2.327,1.772,3.587,2.498c0.634,0.366,1.451,0.554,2.185,0.554
			c0.418,0,0.972-0.461,1.202-0.865c0.136-0.239-0.129-0.882-0.403-1.152c-1.795-1.768-3.64-3.484-5.47-5.214
			c-0.607-0.574-1.057-1.226-0.364-1.977c0.696-0.754,1.358-0.369,1.978,0.225c2.057,1.97,4.137,3.916,6.193,5.887
			c1.311,1.257,3.034,0.903,3.615-0.824c0.113-0.335-0.044-0.921-0.293-1.19c-0.842-0.908-1.784-1.723-2.683-2.58
			c-1.612-1.537-3.221-3.077-4.831-4.617c-0.589-0.563-0.747-1.209-0.148-1.819c0.556-0.567,1.184-0.455,1.744,0.076
			c0.185,0.176,0.374,0.349,0.559,0.525c2.273,2.167,4.537,4.343,6.822,6.497c1.449,1.366,3.478,0.784,4.136-1.124
			c0.26-0.754,0.121-1.255-0.495-1.797c-2.549-2.243-5.044-4.548-7.572-6.815c-0.65-0.583-1.206-1.214-0.504-2.037
			c0.722-0.846,1.423-0.353,2.065,0.231c2.592,2.36,5.237,4.665,7.759,7.098c0.924,0.891,1.788,0.836,2.764,0.41
			c1.345-0.587,1.585-2.031,0.554-3.062c-2.557-2.558-5.093-5.139-7.689-7.658c-0.607-0.589-1.363-1.086-2.138-1.428
			c-3.895-1.722-7.315-3.98-9.305-7.92c-0.977-1.935-0.961-1.959-3.129-1.549c-0.372,0.07-0.728,0.292-1.059,0.495
			c-1.118,0.686-2.155,1.559-3.35,2.053c-1.357,0.561-2.845,1.083-4.286,1.109c-3.501,0.063-5.157-2.789-3.511-5.861
			c0.509-0.951,1.245-1.793,1.949-2.624c0.655-0.774,1.404-1.467,2.112-2.195c-0.068-0.123-0.135-0.246-0.203-0.369
			c-2.701,0.959-5.416,1.883-8.095,2.9c-0.717,0.273-1.289,0.326-1.949-0.073c-2.155-1.3-4.328-2.571-6.495-3.851
			c-0.236-0.14-0.481-0.266-0.765-0.422c-3.514,5.344-6.979,10.613-10.492,15.955c4.63,3.307,9.196,6.57,13.752,9.824
			C177.218,70.066,178.075,70.038,181.355,72.337z M226.59,48.207c-4.104,1.629-8.102,3.2-12.085,4.808
			c-0.815,0.329-1.484,0.261-2.271-0.152c-3.549-1.865-7.131-3.668-10.71-5.476c-1.666-0.842-3.411-0.917-5.224-0.531
			c-1.568,0.334-3.04,0.861-4.183,1.998c-1.805,1.794-3.681,3.546-5.255,5.531c-1.128,1.422-0.345,2.576,1.503,2.586
			c0.324,0.002,0.677-0.006,0.969-0.125c1.143-0.466,2.444-0.762,3.361-1.517c2.023-1.667,4.277-2.384,6.828-2.397
			c0.036,0,0.073-0.006,0.109-0.013c0.963-0.18,1.536,0.198,1.752,1.165c0.443,1.984,1.478,3.626,2.92,5.04
			c1.831,1.796,4.025,2.988,6.36,3.983c0.682,0.29,1.361,0.705,1.889,1.219c2.539,2.471,5.036,4.985,7.52,7.511
			c0.47,0.478,0.821,0.63,1.482,0.291c3.701-1.896,7.432-3.733,11.149-5.597c0.216-0.108,0.402-0.274,0.616-0.422
			C231.079,60.149,228.861,54.249,226.59,48.207z M182.118,82.999c0.19-2.726,1.46-4.961,3.083-7.012
			c0.59-0.745,0.201-1.292-0.149-1.866c-0.396-0.65-1.028-0.549-1.536-0.216c-0.815,0.534-1.691,1.062-2.31,1.789
			c-1.507,1.77-2.378,3.762-1.357,6.13C180.253,82.762,180.879,83.307,182.118,82.999z M189.543,84.399
			c0.157,2.102,1.111,3.363,3.002,3.601c0.366,0.046,1.108-0.338,1.138-0.589c0.227-1.873,0.435-3.765,0.401-5.646
			c-0.017-0.933-0.666-1.832-1.725-2.016c-1.117-0.194-1.661,0.665-1.981,1.523C190.002,82.278,189.813,83.354,189.543,84.399z
			 M187.336,86.094c-0.071-3.228,0.149-6.3,3.017-8.388c-0.871-1.176-2.128-1.575-2.846-0.762c-1.508,1.708-2.754,3.607-2.991,5.955
			C184.338,84.662,185.706,86.229,187.336,86.094z M179.315,73.842c-1.174-1.138-1.865-1.112-2.861,0.214
			c-0.325,0.432-0.608,0.908-0.836,1.398c-0.661,1.42-0.056,2.687,1.331,3.133C177.73,77.021,178.5,75.477,179.315,73.842z"/>
		<path fill="#FFFFFF" d="M181.355,72.337c-3.28-2.3-4.137-2.272-6.896,0.241c-4.556-3.255-9.123-6.517-13.752-9.824
			c3.513-5.342,6.978-10.611,10.492-15.955c0.284,0.156,0.528,0.283,0.765,0.422c2.167,1.28,4.34,2.55,6.495,3.851
			c0.661,0.399,1.232,0.345,1.949,0.073c2.679-1.018,5.393-1.941,8.095-2.9c0.068,0.123,0.135,0.246,0.203,0.369
			c-0.708,0.729-1.457,1.422-2.112,2.195c-0.704,0.831-1.44,1.673-1.949,2.624c-1.646,3.073,0.01,5.925,3.511,5.861
			c1.441-0.026,2.929-0.547,4.286-1.109c1.195-0.494,2.231-1.367,3.35-2.053c0.331-0.203,0.687-0.425,1.059-0.495
			c2.168-0.41,2.152-0.386,3.129,1.549c1.99,3.94,5.41,6.198,9.305,7.92c0.775,0.343,1.531,0.839,2.138,1.428
			c2.595,2.519,5.131,5.099,7.689,7.658c1.031,1.031,0.791,2.476-0.554,3.062c-0.976,0.426-1.841,0.481-2.764-0.41
			c-2.522-2.433-5.167-4.737-7.759-7.098c-0.642-0.585-1.343-1.077-2.065-0.231c-0.702,0.822-0.145,1.454,0.504,2.037
			c2.528,2.267,5.023,4.572,7.572,6.815c0.616,0.542,0.755,1.043,0.495,1.797c-0.658,1.908-2.687,2.49-4.136,1.124
			c-2.285-2.154-4.549-4.331-6.822-6.497c-0.185-0.176-0.373-0.349-0.559-0.525c-0.56-0.531-1.188-0.643-1.744-0.076
			c-0.6,0.611-0.442,1.256,0.148,1.819c1.61,1.539,3.218,3.08,4.831,4.617c0.899,0.856,1.841,1.671,2.683,2.58
			c0.249,0.269,0.406,0.854,0.293,1.19c-0.581,1.728-2.305,2.081-3.615,0.824c-2.056-1.971-4.136-3.917-6.193-5.887
			c-0.62-0.594-1.281-0.98-1.978-0.225c-0.693,0.751-0.243,1.403,0.364,1.977c1.831,1.731,3.676,3.447,5.47,5.214
			c0.274,0.27,0.539,0.913,0.403,1.152c-0.23,0.403-0.784,0.865-1.202,0.865c-0.734-0.001-1.551-0.188-2.185-0.554
			c-1.261-0.727-2.476-1.562-3.587-2.498c-0.315-0.266-0.342-1.054-0.267-1.569c0.216-1.499,0.271-3.025-0.787-4.163
			c-1.582-1.701-3.303-3.285-5.084-4.777c-0.517-0.433-1.446-0.363-2.175-0.563c-0.299-0.082-0.744-0.202-0.827-0.418
			c-0.931-2.408-3.118-3.232-5.756-1.681C181.659,72.183,181.498,72.261,181.355,72.337z"/>
		<path fill="#FFFFFF" d="M226.59,48.207c2.271,6.042,4.489,11.942,6.729,17.902c-0.214,0.149-0.401,0.314-0.616,0.422
			c-3.717,1.864-7.448,3.701-11.149,5.597c-0.661,0.338-1.012,0.186-1.482-0.291c-2.484-2.526-4.981-5.04-7.52-7.511
			c-0.528-0.514-1.207-0.929-1.889-1.219c-2.335-0.994-4.529-2.187-6.36-3.983c-1.443-1.415-2.477-3.057-2.92-5.04
			c-0.216-0.967-0.79-1.346-1.752-1.165c-0.036,0.007-0.072,0.013-0.109,0.013c-2.552,0.013-4.805,0.73-6.828,2.397
			c-0.916,0.755-2.218,1.051-3.361,1.517c-0.292,0.119-0.645,0.127-0.969,0.125c-1.848-0.01-2.631-1.164-1.503-2.586
			c1.575-1.985,3.451-3.737,5.255-5.531c1.143-1.137,2.616-1.664,4.183-1.998c1.813-0.386,3.558-0.311,5.224,0.531
			c3.579,1.808,7.161,3.611,10.71,5.476c0.787,0.414,1.456,0.482,2.271,0.152C218.488,51.407,222.486,49.835,226.59,48.207z"/>
		<path fill="#FFFFFF" d="M182.118,82.999c-1.238,0.308-1.864-0.237-2.269-1.175c-1.021-2.367-0.15-4.359,1.357-6.13
			c0.619-0.727,1.495-1.255,2.31-1.789c0.508-0.333,1.14-0.433,1.536,0.216c0.35,0.574,0.738,1.12,0.149,1.866
			C183.577,78.038,182.308,80.273,182.118,82.999z"/>
		<path fill="#FFFFFF" d="M189.543,84.399c0.27-1.045,0.459-2.121,0.835-3.127c0.32-0.858,0.864-1.717,1.981-1.523
			c1.06,0.184,1.708,1.083,1.725,2.016c0.034,1.881-0.175,3.773-0.401,5.646c-0.03,0.251-0.772,0.636-1.138,0.589
			C190.654,87.762,189.7,86.501,189.543,84.399z"/>
		<path fill="#FFFFFF" d="M187.336,86.094c-1.629,0.136-2.998-1.432-2.82-3.195c0.237-2.348,1.483-4.247,2.991-5.955
			c0.718-0.813,1.975-0.413,2.846,0.762C187.485,79.794,187.264,82.866,187.336,86.094z"/>
		<path fill="#FFFFFF" d="M179.315,73.842c-0.815,1.635-1.585,3.179-2.366,4.745c-1.387-0.447-1.991-1.713-1.331-3.133
			c0.228-0.49,0.511-0.966,0.836-1.398C177.45,72.73,178.141,72.704,179.315,73.842z"/>
	</g>
	<g>
		<path fill="#FFFFFF" d="M196.722,153.651c0-0.434,0-0.79,0-1.147c0-7.876,0-15.752,0.001-23.628c0-0.328,0.018-0.655,0.026-0.983
			c0.02-0.838,0.443-1.259,1.287-1.248c0.179,0.002,0.358-0.002,0.537-0.002c13.425,0,26.85-0.001,40.275,0.001
			c1.449,0,1.743,0.26,1.745,1.708c0.012,8.264,0.005,16.528,0.003,24.791c0,0.148-0.026,0.295-0.046,0.507
			C225.973,153.651,211.404,153.651,196.722,153.651z M234.08,140.181c-2.777,1.562-5.452,3.062-8.121,4.57
			c-0.851,0.481-1.168,1.249-0.813,1.903c0.366,0.674,1.175,0.82,2.032,0.34c3.274-1.832,6.549-3.665,9.814-5.513
			c1.251-0.708,1.251-1.918,0.007-2.621c-3.215-1.816-6.437-3.622-9.659-5.426c-0.967-0.541-1.666-0.42-2.075,0.334
			c-0.37,0.682-0.083,1.371,0.815,1.885c1.266,0.725,2.544,1.432,3.814,2.151C231.262,138.578,232.627,139.356,234.08,140.181z
			 M203.234,140.178c2.761-1.562,5.38-3.036,7.992-4.523c0.91-0.518,1.201-1.208,0.833-1.878c-0.417-0.758-1.116-0.882-2.074-0.345
			c-3.195,1.791-6.383,3.593-9.582,5.375c-0.555,0.309-0.994,0.657-0.992,1.354c0.003,0.691,0.43,1.055,0.984,1.364
			c2.86,1.597,5.711,3.209,8.565,4.815c0.493,0.277,0.973,0.585,1.487,0.814c0.686,0.305,1.339,0.164,1.704-0.502
			c0.361-0.659,0.147-1.276-0.474-1.714c-0.218-0.154-0.462-0.271-0.696-0.402C208.439,143.106,205.897,141.676,203.234,140.178z
			 M223.182,131.199c-0.071-0.219-0.075-0.486-0.209-0.594c-0.347-0.281-0.732-0.647-1.137-0.698
			c-0.68-0.085-1.03,0.436-1.249,1.051c-1.414,3.981-2.842,7.956-4.264,11.934c-0.691,1.933-1.429,3.851-2.036,5.81
			c-0.138,0.447,0.053,1.118,0.329,1.525c0.167,0.246,0.893,0.373,1.182,0.214c0.414-0.227,0.789-0.717,0.955-1.176
			c2.082-5.731,4.124-11.476,6.173-17.218C223.026,131.77,223.097,131.483,223.182,131.199z"/>
		<path fill="#FFFFFF" d="M244.334,162.715c-17.159,0-34.187,0-51.357,0c0.692-1.485,1.48-2.833,1.954-4.284
			c0.577-1.763,1.602-2.176,3.406-2.164c13.966,0.088,27.932,0.055,41.898,0.031c0.821-0.001,1.274,0.199,1.602,1.004
			c0.628,1.543,1.395,3.029,2.103,4.54C244.062,162.102,244.177,162.366,244.334,162.715z"/>
		<path fill="#FFFFFF" d="M192.358,165.379c17.519,0,35.046,0,52.569,0c0.502,1.89,0.026,2.509-1.99,2.513
			c-6.533,0.012-13.066,0.005-19.599,0.005c-9.427,0-18.853,0-28.28,0c-0.268,0-0.537,0.005-0.805-0.002
			C192.386,167.847,191.998,167.342,192.358,165.379z"/>
		<g>
			<path fill="#3B434F" d="M218.571,170.464c-8.088,0-16.175,0.008-24.263-0.013c-0.734-0.002-1.5-0.09-2.195-0.314
				c-1.506-0.485-2.386-1.801-2.471-3.386c-0.101-1.872,0.12-3.627,1.056-5.334c1.1-2.007,2.002-4.126,2.91-6.231
				c0.307-0.711,0.519-1.527,0.522-2.296c0.037-8.147,0.022-16.294,0.023-24.442c0-2.827,1.541-4.371,4.362-4.372
				c13.429-0.001,26.859-0.001,40.288,0c2.819,0,4.364,1.547,4.364,4.371c0.001,8.267-0.007,16.533,0.016,24.8
				c0.001,0.542,0.142,1.123,0.366,1.619c1.24,2.74,2.612,5.425,3.766,8.2c0.714,1.717,0.655,3.602-0.086,5.307
				c-0.714,1.642-2.273,2.083-3.95,2.088c-3.521,0.01-7.043,0.003-10.565,0.003C228.001,170.464,223.286,170.464,218.571,170.464z
				 M196.722,153.651c14.683,0,29.251,0,43.828,0c0.02-0.212,0.046-0.36,0.046-0.507c0.002-8.264,0.009-16.528-0.003-24.791
				c-0.002-1.448-0.297-1.708-1.745-1.708c-13.425-0.002-26.85-0.001-40.275-0.001c-0.179,0-0.358,0.004-0.537,0.002
				c-0.844-0.011-1.267,0.41-1.287,1.248c-0.008,0.328-0.026,0.655-0.026,0.983c-0.001,7.876-0.001,15.752-0.001,23.628
				C196.722,152.861,196.722,153.217,196.722,153.651z M244.334,162.715c-0.157-0.349-0.272-0.613-0.394-0.873
				c-0.708-1.51-1.476-2.997-2.103-4.54c-0.327-0.805-0.781-1.006-1.602-1.004c-13.966,0.024-27.933,0.057-41.898-0.031
				c-1.804-0.011-2.829,0.401-3.406,2.164c-0.475,1.451-1.263,2.799-1.954,4.284C210.147,162.715,227.176,162.715,244.334,162.715z
				 M192.358,165.379c-0.36,1.963,0.029,2.468,1.895,2.516c0.268,0.007,0.537,0.002,0.805,0.002c9.427,0,18.853,0,28.28,0
				c6.533,0,13.066,0.007,19.599-0.005c2.016-0.004,2.491-0.622,1.99-2.513C227.404,165.379,209.876,165.379,192.358,165.379z"/>
			<path fill="#3B434F" d="M234.08,140.181c-1.453-0.825-2.819-1.603-4.187-2.377c-1.27-0.719-2.548-1.425-3.814-2.151
				c-0.897-0.514-1.184-1.204-0.815-1.885c0.409-0.754,1.109-0.875,2.075-0.334c3.222,1.804,6.444,3.609,9.659,5.426
				c1.244,0.703,1.244,1.913-0.007,2.621c-3.266,1.848-6.54,3.681-9.814,5.513c-0.857,0.48-1.666,0.334-2.032-0.34
				c-0.355-0.654-0.038-1.422,0.813-1.903C228.629,143.243,231.303,141.743,234.08,140.181z"/>
			<path fill="#3B434F" d="M203.234,140.178c2.663,1.498,5.205,2.928,7.747,4.358c0.234,0.131,0.478,0.248,0.696,0.402
				c0.621,0.438,0.836,1.055,0.474,1.714c-0.365,0.666-1.018,0.807-1.704,0.502c-0.515-0.229-0.995-0.537-1.487-0.814
				c-2.855-1.606-5.705-3.219-8.565-4.815c-0.554-0.309-0.981-0.674-0.984-1.364c-0.003-0.697,0.436-1.045,0.992-1.354
				c3.199-1.782,6.387-3.585,9.582-5.375c0.958-0.537,1.658-0.414,2.074,0.345c0.368,0.67,0.077,1.361-0.833,1.878
				C208.614,137.142,205.995,138.617,203.234,140.178z"/>
			<path fill="#3B434F" d="M223.182,131.199c-0.085,0.284-0.156,0.571-0.254,0.848c-2.049,5.743-4.091,11.488-6.173,17.218
				c-0.167,0.459-0.541,0.949-0.955,1.176c-0.289,0.159-1.016,0.032-1.182-0.214c-0.276-0.407-0.468-1.079-0.329-1.525
				c0.607-1.959,1.345-3.877,2.036-5.81c1.423-3.978,2.85-7.953,4.264-11.934c0.219-0.615,0.569-1.136,1.249-1.051
				c0.405,0.051,0.789,0.416,1.137,0.698C223.106,130.712,223.111,130.98,223.182,131.199z"/>
		</g>
	</g>
</g>
<g>
</g>
<g>
</g>
<g>
</g>
<g>
</g>
<g>
</g>
<g>
</g>
<g>
</g>
<g>
</g>
<g>
</g>
<g>
</g>
<g>
</g>
<g>
</g>
<g>
</g>
<g>
</g>
<g>
</g>
</svg>
