<?xml version="1.0" encoding="utf-8"?>
<!-- Generator: Adobe Illustrator 17.0.0, SVG Export Plug-In . SVG Version: 6.00 Build 0)  -->
<!DOCTYPE svg PUBLIC "-//W3C//DTD SVG 1.1//EN" "http://www.w3.org/Graphics/SVG/1.1/DTD/svg11.dtd">
<svg version="1.1" id="Layer_1" xmlns="http://www.w3.org/2000/svg" xmlns:xlink="http://www.w3.org/1999/xlink" x="0px" y="0px"
	 width="101.667px" height="96px" viewBox="0 0 101.667 96" enable-background="new 0 0 101.667 96" xml:space="preserve">
<path fill-rule="evenodd" clip-rule="evenodd" fill="#FFFFFF" d="M89,80c0,2.761-2.239,5-5,5H22c-2.761,0-5-2.239-5-5V24
	c0-2.761,2.239-5,5-5h62c2.761,0,5,2.239,5,5V80z"/>
<g>
	<path fill-rule="evenodd" clip-rule="evenodd" fill="#1E1E1E" d="M72.127,24.782c0,0.658-0.536,1.194-1.194,1.194
		c-0.659,0-1.194-0.536-1.194-1.194V11.909c0-0.658,0.536-1.194,1.194-1.194c0.658,0,1.194,0.536,1.194,1.194V24.782z"/>
	<path fill-rule="evenodd" clip-rule="evenodd" fill="#1E1E1E" d="M36.33,24.782c0,0.658-0.536,1.194-1.194,1.194
		c-0.659,0-1.194-0.536-1.194-1.194V11.909c0-0.658,0.535-1.194,1.194-1.194c0.658,0,1.194,0.536,1.194,1.194V24.782z"/>
	<path fill-rule="evenodd" clip-rule="evenodd" fill="#1E1E1E" d="M25.294,41.154c-0.658,0-1.194-0.536-1.194-1.194
		c0-0.658,0.536-1.194,1.194-1.194h55.485c0.659,0,1.194,0.536,1.194,1.194c0,0.658-0.535,1.194-1.194,1.194H25.294z"/>
	<path fill-rule="evenodd" clip-rule="evenodd" fill="#1E1E1E" d="M44.982,75.411c0,0.659-0.536,1.194-1.194,1.194
		c-0.658,0-1.194-0.536-1.194-1.194V53.631l-4.128,4.128c-0.465,0.465-1.223,0.465-1.688,0c-0.465-0.465-0.465-1.223,0-1.688
		l6.166-6.166c0.217-0.215,0.514-0.349,0.844-0.349c0.658,0,1.194,0.536,1.194,1.194V75.411z"/>
	<path fill-rule="evenodd" clip-rule="evenodd" fill="#1E1E1E" d="M53.035,76.604c-0.659,0-1.194-0.536-1.194-1.194
		c0-0.658,0.536-1.194,1.194-1.194h6.166c1.373,0,2.616-0.555,3.514-1.45l0.006-0.005c0.895-0.899,1.451-2.143,1.451-3.515
		s-0.555-2.617-1.451-3.516l-0.006-0.006c-0.899-0.895-2.142-1.451-3.514-1.451h-6.166c-0.659,0-1.194-0.536-1.194-1.194v-0.031
		V50.75c0-0.659,0.536-1.194,1.194-1.194h0.03h12.299c0.658,0,1.194,0.536,1.194,1.194c0,0.658-0.536,1.194-1.194,1.194H54.229
		v9.943h4.972c2.026,0,3.867,0.826,5.198,2.155l0.005,0.005c1.329,1.331,2.155,3.173,2.155,5.199c0,2.027-0.826,3.868-2.155,5.198
		l-0.005,0.005c-1.331,1.329-3.171,2.155-5.198,2.155H53.035z"/>
	<path fill-rule="evenodd" clip-rule="evenodd" fill="#1E1E1E" d="M14.851,36.877c0-0.658,0.536-1.194,1.194-1.194
		c0.659,0,1.194,0.536,1.194,1.194v43.157c0,1.366,0.56,2.61,1.461,3.51c0.901,0.901,2.145,1.462,3.511,1.462h61.649
		c1.365,0,2.609-0.561,3.51-1.462c0.901-0.9,1.462-2.145,1.462-3.51V36.877c0-0.658,0.535-1.194,1.194-1.194
		c0.658,0,1.194,0.536,1.194,1.194v43.157c0,2.024-0.829,3.867-2.161,5.198c-1.332,1.332-3.172,2.161-5.198,2.161H22.211
		c-2.024,0-3.868-0.828-5.199-2.161c-1.332-1.332-2.161-3.175-2.161-5.198V36.877z"/>
	<path fill-rule="evenodd" clip-rule="evenodd" fill="#1E1E1E" d="M35.136,16.688c0.658,0,1.194,0.535,1.194,1.194
		c0,0.658-0.536,1.194-1.194,1.194H22.211c-1.356,0-2.599,0.564-3.504,1.469L18.647,20.6c-0.868,0.894-1.407,2.116-1.407,3.446
		v5.473h71.593v-5.473c0-1.36-0.565-2.602-1.466-3.502l-0.057-0.061c-0.894-0.87-2.118-1.408-3.449-1.408h-8.158
		c-0.658,0-1.194-0.536-1.194-1.194c0-0.658,0.536-1.194,1.194-1.194h8.158c1.968,0,3.781,0.8,5.112,2.093l0.081,0.074
		c1.332,1.332,2.165,3.17,2.165,5.191v6.635v0.031c0,0.658-0.536,1.194-1.194,1.194h-73.95h-0.031c-0.658,0-1.194-0.536-1.194-1.194
		v-6.667c0-1.97,0.801-3.778,2.093-5.109l0.075-0.082c1.335-1.334,3.175-2.167,5.192-2.167H35.136L35.136,16.688z M70.934,16.688
		H39.905c-0.658,0-1.194,0.535-1.194,1.194c0,0.658,0.536,1.194,1.194,1.194h31.028c0.658,0,1.194-0.536,1.194-1.194
		C72.127,17.224,71.592,16.688,70.934,16.688z"/>
</g>
<g>
</g>
<g>
</g>
<g>
</g>
<g>
</g>
<g>
</g>
<g>
</g>
<g>
</g>
<g>
</g>
<g>
</g>
<g>
</g>
<g>
</g>
<g>
</g>
<g>
</g>
<g>
</g>
<g>
</g>
</svg>
