<?xml version="1.0" encoding="utf-8"?>
<!-- Generator: Adobe Illustrator 17.0.0, SVG Export Plug-In . SVG Version: 6.00 Build 0)  -->
<!DOCTYPE svg PUBLIC "-//W3C//DTD SVG 1.1//EN" "http://www.w3.org/Graphics/SVG/1.1/DTD/svg11.dtd">
<svg version="1.1" id="Layer_1" xmlns="http://www.w3.org/2000/svg" xmlns:xlink="http://www.w3.org/1999/xlink" x="0px" y="0px"
	 width="385.667px" height="168px" viewBox="0 0 385.667 168" enable-background="new 0 0 385.667 168" xml:space="preserve">
<g>
	<g>
		<g>
			<path id="body-bg-flat_11_" fill="#FFFFFF" d="M302.646,105.929c0,0-2.109-18.491,16.06-20.554h7.775v-3.582
				c0,0,5.469,2.349,11.007,0.262l0.175,3.32h9.085c0,0,15.821,1.579,14.864,20.554H302.646z"/>
			<path id="Rounded_Rectangle_13_copy_8_" fill="#3B434F" d="M361.462,106.254L361.462,106.254h-58.253l0,0h-1.13l0.282-4.818
				c0.551-9.406,7.962-16.585,16.443-16.585h6.455v0.961h-5.94c-8.174,0-15.317,6.91-15.848,15.964l-0.196,3.342h58.033
				l-0.109-3.342c-0.531-9.054-7.674-15.964-15.848-15.964h-7.95v-0.961h8.413c8.481,0,15.892,7.179,16.443,16.585l0.282,4.818
				H361.462z"/>
			<path id="neck_copy_5_8_" fill="#3B434F" d="M327.355,81.39v5.388c0,2.796,2.268,5.062,5.067,5.062s5.067-2.267,5.067-5.062
				v-5.277c0.294-0.09,0.585-0.187,0.874-0.292v5.605c0,3.306-2.679,5.987-5.984,5.987s-5.984-2.68-5.984-5.987v-5.771
				C326.71,81.169,327.031,81.284,327.355,81.39z"/>
			<path id="Rounded_Rectangle_14_8_" fill="#3B434F" d="M326.35,91.753c0.314,0,0.568,0.254,0.568,0.568v8.561
				c0,0.314-0.254,0.568-0.568,0.568s-0.568-0.254-0.568-0.568v-8.561C325.782,92.007,326.037,91.753,326.35,91.753z"/>
			<path id="Rounded_Rectangle_15_8_" fill="#3B434F" d="M338.275,91.665c0.338,0,0.612,0.274,0.612,0.612v5.329
				c0,0.338-0.274,0.612-0.612,0.612c-0.338,0-0.612-0.274-0.612-0.612v-5.329C337.663,91.939,337.937,91.665,338.275,91.665z"/>
			<path id="Rounded_Rectangle_16_8_" fill="#3B434F" d="M326.35,100.838c0.169,0,0.306,0.137,0.306,0.306v2.184
				c0,0.169-0.137,0.306-0.306,0.306s-0.306-0.137-0.306-0.306v-2.184C326.044,100.975,326.181,100.838,326.35,100.838z"/>
			<path id="Rounded_Rectangle_16_copy_8_" fill="#3B434F" d="M338.318,97.606c0.169,0,0.306,0.137,0.306,0.306v2.184
				c0,0.169-0.137,0.306-0.306,0.306s-0.306-0.137-0.306-0.306v-2.184C338.012,97.743,338.149,97.606,338.318,97.606z"/>
			<path id="Shape_1_copy_8_" fill="#F5F3EF" d="M323.073,79.24l-5.533,1.27c0,0-6.776,1.535-2.268,6.101
				c4.508,4.567,16.101,5.373,16.101,5.373s-3.065-1.452-4.368-3.494l-0.437-7.338L323.073,79.24z"/>
			<path id="Shape_1_copy_2_8_" fill="#3B434F" d="M331.548,92.422c-0.343,0.435-9.997,0.136-16.685-5.678
				c-4.843-4.21,2.446-6.639,2.446-6.639l5.329-1.223l4.63,2.359l0.349,7.076C329.566,91.372,332.101,91.722,331.548,92.422z
				 M326.743,88.665l-0.524-7.425l-2.795-1.572l-5.329,1.31c0,0-6.455,1.324-2.359,5.154c4.42,4.134,12.598,5.243,13.453,5.154
				C330.076,91.194,328.692,91.721,326.743,88.665z"/>
			<path id="Shape_1_copy_4_8_" fill="#F5F3EF" d="M341.765,79.446l5.536,1.274c0,0,6.78,1.539,2.269,6.12
				c-4.51,4.58-16.111,5.389-16.111,5.389s3.067-1.456,4.37-3.505l0.437-7.36L341.765,79.446z"/>
			<path id="Shape_1_copy_6_8_" fill="#3B434F" d="M333.284,92.58c0.344,0.436,10.003,0.136,16.695-5.695
				c4.846-4.222-2.447-6.659-2.447-6.659l-5.332-1.227l-4.633,2.366l-0.35,7.097C335.267,91.527,332.731,91.878,333.284,92.58z
				 M338.092,88.812l0.524-7.448l2.797-1.577l5.332,1.314c0,0,6.458,1.328,2.36,5.17c-4.423,4.146-12.605,5.259-13.461,5.17
				C334.757,91.348,336.142,91.877,338.092,88.812z"/>
			<path id="_x32__copy_5_23_" fill="#FFFFFF" d="M332.378,26.584c10.867,0,19.445,10.156,19.166,22.358l-0.296,12.969
				c-0.263,11.496-8.708,20.582-18.87,20.582s-18.607-9.087-18.87-20.582l-0.296-12.969
				C312.933,36.74,321.511,26.584,332.378,26.584z"/>
			<path id="_x32__line_23_" fill="#3B434F" d="M352.417,48.54l-0.311,13.496c-0.275,11.963-9.125,21.419-19.772,21.419
				s-19.497-9.456-19.772-21.419l-0.311-13.496c-0.292-12.698,8.696-23.266,20.083-23.266S352.71,35.842,352.417,48.54z
				 M332.291,26.671c-10.719,0-19.179,10.076-18.904,22.183l0.292,12.867c0.259,11.406,8.589,20.422,18.612,20.422
				s18.353-9.016,18.612-20.422l0.292-12.867C351.47,36.748,343.01,26.671,332.291,26.671z"/>
			<path id="_x31__copy_4_16_" opacity="0.0588" fill="#3B434F" enable-background="new    " d="M351.872,50.782l-0.874,14.327
				c0,0-3.88,16.537-18.869,18.496v0.024c-0.029-0.004-0.058-0.008-0.087-0.012c-0.029,0.004-0.058,0.009-0.087,0.012v-0.024
				c-14.989-1.958-18.869-18.496-18.869-18.496l-0.874-14.327c3.89,17.265,7.163,18.345,7.163,18.345
				c-0.662-5.236,4.717-4.717,4.717-4.717c3.279,0.554,5.889,0.821,7.95,0.922c2.061-0.1,4.671-0.368,7.95-0.922
				c0,0,5.38-0.518,4.717,4.717C344.709,69.127,347.983,68.048,351.872,50.782z M342.158,70.903
				c-0.254-3.08-2.111-2.819-2.111-2.819c-3.301,0.971-5.893,1.511-7.918,1.785v-0.02c-2.01-0.272-4.584-0.807-7.862-1.771
				c0,0-1.844-0.259-2.097,2.795c0,0-0.741,3.06,1.747,4.368l3.145,3.32c0,0,2.149,0.681,2.097-1.922c0,0-0.219-1.941,1.048-2.271
				h1.922v0.057h1.935c1.276,0.333,1.056,2.29,1.056,2.29c-0.053,2.625,2.111,1.938,2.111,1.938l3.167-3.347
				C342.904,73.989,342.158,70.903,342.158,70.903z"/>
			<path id="usta_21_" fill="#3B434F" d="M341.769,69.756c-1.588,1.379-5.174,2.69-9.347,2.69c-4.173,0-7.759-1.312-9.347-2.69
				c0,0-0.162-0.447,0.076-0.685c0.243-0.243,0.623-0.19,0.623-0.19c1.586,1.38,4.474,2.518,8.648,2.518s7.062-1.138,8.648-2.518
				c0,0,0.388-0.144,0.576,0.044C342.009,69.288,341.769,69.756,341.769,69.756z"/>
			<path id="_x2D__23_" fill="#3B434F" d="M329.539,74.543h5.591v0.874h-5.591V74.543z"/>
			<path id="Shape_11_copy_29_" fill="#FFFFFF" d="M312.23,50.508c-0.002,0-0.214-0.169-0.615-0.295
				c-0.2-0.063-0.449-0.115-0.732-0.127c-0.071-0.003-0.144-0.004-0.218-0.002c-0.075,0.002-0.151,0.007-0.228,0.015
				c-0.155,0.017-0.315,0.046-0.476,0.093c-0.645,0.185-1.303,0.636-1.69,1.567c-0.194,0.465-0.322,1.05-0.356,1.783
				c-0.008,0.183-0.011,0.375-0.007,0.577c0.004,0.202,0.014,0.413,0.03,0.635c0.033,0.443,0.094,0.926,0.184,1.453
				c-0.002-0.001-0.084,1.591,0.485,3.419c0.535,1.788,1.819,3.984,4.19,4.612C312.523,59.695,312.515,55.069,312.23,50.508
				L312.23,50.508z"/>
			<path id="Shape_3_29_" fill="#3B434F" d="M312.5,50.691c0,0-4.131-1.28-3.986,2.967c0,0,0.615,6.158,0.882,6.726
				c0,0,1.622,3.585,4.3,3.744c2.617,0.155,0,0,0,0l0.033,1.156c0,0-4.706-0.603-5.615-6.027l-0.717-4.927
				c0,0-0.557-6.52,4.846-4.862c5.264,1.615,0,0,0,0L312.5,50.691"/>
			<path id="Shape_4_29_" fill="#3B434F" d="M311.137,59.247c0,0-0.231,0.175-0.43,0.175c-0.199,0-0.427-0.175-0.427-0.175
				l-0.426-4.296c0,0,0.588-2.116,3.084-0.998l0.059,1.228c0,0-2.19-0.777-2.145,0.19C310.896,56.303,311.137,59.247,311.137,59.247
				z"/>
			<path id="Shape_11_copy_x5F_1_27_" fill="#FFFFFF" d="M352.361,50.518c0.002,0,0.215-0.169,0.618-0.295
				c0.201-0.063,0.451-0.115,0.736-0.127c0.071-0.003,0.144-0.004,0.219-0.002c0.075,0.002,0.151,0.007,0.229,0.015
				c0.156,0.017,0.317,0.046,0.478,0.093c0.648,0.185,1.309,0.636,1.697,1.566c0.195,0.465,0.323,1.05,0.357,1.781
				c0.009,0.183,0.011,0.375,0.007,0.577s-0.014,0.413-0.031,0.634c-0.034,0.443-0.094,0.925-0.185,1.452
				c0.002-0.001,0.084,1.59-0.487,3.417c-0.537,1.787-1.827,3.981-4.209,4.608C352.066,59.699,352.075,55.076,352.361,50.518
				L352.361,50.518z"/>
			<path id="Shape_3_x5F_1_29_" fill="#3B434F" d="M352.088,50.701c0,0,4.149-1.279,4.003,2.965c0,0-0.618,6.154-0.886,6.721
				c0,0-1.629,3.583-4.319,3.742c-2.628,0.155,0,0,0,0l-0.033,1.155c0,0,4.727-0.603,5.639-6.022l0.721-4.923
				c0,0,0.559-6.516-4.867-4.859c-5.287,1.614,0,0,0,0L352.088,50.701"/>
			<path id="Shape_4_x5F_1_29_" fill="#3B434F" d="M353.458,59.251c0,0,0.232,0.175,0.432,0.175c0.199,0,0.429-0.175,0.429-0.175
				l0.428-4.293c0,0-0.591-2.114-3.098-0.997l-0.059,1.228c0,0,2.199-0.776,2.154,0.19C353.7,56.309,353.458,59.251,353.458,59.251z
				"/>
			<path id="new_vector_shape_done_29_" fill="#3B434F" d="M333.95,58.906c0.102,0,0.204,0,0.306,0
				c0.632,0.858,0.889,2.178,1.223,3.32c0.103,0.354,0.003,0.973-0.087,1.223c-0.331,0.916-1.371,0.9-2.228,1.31
				c-0.23,0.11-0.401,0.301-0.699,0.349c-0.194-0.171-0.429-0.205-0.524-0.48c-0.236-0.325,0.068-0.528,0.306-0.655
				c0.431-0.231,1.762-0.459,1.922-0.874c0.197-0.224,0.066-0.899,0-1.136c-0.169-0.606-0.25-1.113-0.48-1.66
				c-0.153-0.363-0.421-0.746-0.262-1.179C333.558,59.068,333.842,59.004,333.95,58.906z"/>
			<path id="Rounded_Rectangle_9_8_" fill="#3B434F" d="M321.24,52.739h3.145c0.434,0,0.786,0.422,0.786,0.943
				c0,0.521-0.352,0.943-0.786,0.943h-3.145c-0.434,0-0.786-0.422-0.786-0.943C320.454,53.161,320.806,52.739,321.24,52.739z"/>
			<path id="Rounded_Rectangle_9_copy_8_" fill="#3B434F" d="M340.458,52.529h3.145c0.434,0,0.786,0.422,0.786,0.943
				c0,0.521-0.352,0.943-0.786,0.943h-3.145c-0.434,0-0.786-0.422-0.786-0.943C339.672,52.952,340.024,52.529,340.458,52.529z"/>
			<path id="Ellipse_3_17_" fill="#EDF1F1" d="M342.904,57.945c1.206,0,2.184,0.978,2.184,2.184s-0.978,2.184-2.184,2.184
				s-2.184-0.978-2.184-2.184S341.698,57.945,342.904,57.945z"/>
			<path id="Ellipse_3_copy_25_" fill="#EDF1F1" d="M321.764,57.945c1.206,0,2.184,0.978,2.184,2.184s-0.978,2.184-2.184,2.184
				s-2.184-0.978-2.184-2.184S320.558,57.945,321.764,57.945z"/>
			<path id="glasses_8_" fill="#3B444F" d="M351.363,49.6c-0.118,1.009-0.222,2.245-0.44,3.349c-0.653,3.302-3.49,6.362-8.335,6.71
				c-4.845,0.349-8.969-2.091-9.21-5.448c-0.041-0.569-0.151-1.208-0.235-1.829c-0.686-0.38-1.392-0.381-2.12-0.003
				c-0.085,0.635-0.199,1.291-0.241,1.874c-0.242,3.369-4.379,5.816-9.239,5.466c-4.86-0.35-7.707-3.419-8.361-6.733
				c-0.219-1.108-0.323-2.347-0.442-3.36l-0.714-0.051l0.1-1.394l0.174,0.013l4.42,0.318l3.731,0.268l3.738,0.269l5.822,0.419
				c0.402,0.051,0.669,0.223,0.84,0.48c0.836,0.366,1.648,0.367,2.436,0.004c0.17-0.274,0.441-0.458,0.857-0.51l5.804-0.418
				l3.726-0.268l3.719-0.268l4.406-0.317l0.174-0.012l0.1,1.39L351.363,49.6z M328.448,51.106l-11.411-0.821
				c-1.492-0.129-2.021,1.548-2.113,2.827c-0.194,2.695,2.809,5.107,6.707,5.387c3.898,0.28,7.215-1.677,7.409-4.372
				C329.131,52.85,329.549,52.06,328.448,51.106z M349.186,53.074c-0.092-1.274-0.619-2.946-2.107-2.817l-11.375,0.818
				c-1.097,0.951-0.681,1.737-0.589,3.011c0.193,2.686,3.5,4.637,7.386,4.357C346.386,58.164,349.379,55.76,349.186,53.074z"/>
			<path id="Shape_7_4_" fill="#3B434F" d="M313.296,56.198c0,0,2.43-10.646,4.545-13.558c2.115-2.912,3.945-3.609,4.895-3.698
				c0.95-0.089,8.43,2.122,18.704-0.411c0,0,4.051-0.162,5.769,3.903c0,0,3.621,6.478,4.195,12.942h0.699
				c0,0,1.482-11.331,0.874-18.077c-0.608-6.746-9.44-10.066-9.44-10.066l1.923-1.438c0,0-4.489-1.388-6.293-0.616l1.398-2.876
				c0,0-9.06,0.018-14.159,4.108l0.175-2.054c0,0-17.974,2.756-14.159,31.43L313.296,56.198z"/>
		</g>
		<g>
			<path id="Shape_12" fill="#3B434F" d="M274.606,103.485c-4.617,20.197-28.252,12.287-36.32,8.931v-0.021
				c-8.068,3.358-31.703,11.274-36.32-8.938c0,0,8.282,0.089,5.796-25.888c0,0-8.972-51.46,30.524-47.159v0.084
				c39.497-4.298,30.524,47.123,30.524,47.123C266.324,103.574,274.606,103.485,274.606,103.485z"/>
			<path id="body-bg-flat_copy" fill="#FFFFFF" d="M205.539,128.049c0,0-1.498-20.373,17.677-22.275h8.597v-3.96
				c0,0,6.047,2.598,12.171,0.29l0.193,3.671h10.046c0,0,17.203,0.676,16.421,22.468L205.539,128.049z"/>
			<path id="Rounded_Rectangle_13_copy_4" fill="#3B434F" d="M270.493,128.861h-64.414h-1.249l0.312-5.327
				c0.609-10.401,8.804-18.339,18.182-18.339h6.449c-0.418,0.346-0.725,0.705-0.945,1.063h-4.934
				c-9.039,0-16.937,7.641-17.524,17.652l-0.217,3.695h64.17l-0.12-3.695c-0.587-10.012-8.485-17.652-17.524-17.652h-4.938
				c-0.189-0.355-0.457-0.714-0.832-1.063h6.282c9.378,0,17.573,7.938,18.182,18.339l0.312,5.327H270.493z M244.998,106.258h-0.337
				v-1.063h0.375C245.014,105.471,244.999,105.819,244.998,106.258z M231.412,105.195h0.402v1.063h-0.347
				C231.461,105.806,231.441,105.46,231.412,105.195z"/>
			<path id="Ellipse_5" fill="#3B434F" d="M241.28,119.974c0.373,0,0.676,0.303,0.676,0.676c0,0.373-0.303,0.676-0.676,0.676
				s-0.676-0.303-0.676-0.676C240.604,120.277,240.907,119.974,241.28,119.974z"/>
			<path id="Ellipse_5_copy" fill="#3B434F" d="M241.28,124.418c0.373,0,0.676,0.303,0.676,0.676c0,0.373-0.303,0.676-0.676,0.676
				s-0.676-0.303-0.676-0.676C240.604,124.721,240.907,124.418,241.28,124.418z"/>
			<path id="Shape_2_copy_9" fill="#3B434F" d="M249.104,110.894l-4.926,7.341c-1.34-4.154-5.216-2.608-5.216-2.608v12.268
				c0,0.32-0.303,0.579-0.676,0.579c-0.373,0-0.676-0.259-0.676-0.579v-12.268c-0.031-0.012-3.877-1.528-5.21,2.608l-4.921-7.341
				c0,0-1.904-4.84,3.86-6.955c0-2.111,0-2.222,0-2.222h1.09c0,0,0,4.035,0,6.992c0.14,1.204,0.969,4.633,5.858,5.759
				c4.894-1.126,5.724-4.555,5.864-5.759c0-2.957,0-6.992,0-6.992h1.091c0,0,0,0.111,0,2.222
				C251.01,106.055,249.104,110.894,249.104,110.894z M232.343,111.544c-0.263-0.297-0.641-1.036-0.641-1.036
				s-0.363-1.209-0.363-1.739c0-0.658,0-1.522,0-2.45c-0.082-1.105-0.289-1.124-0.289-1.124c-4.3,2.118-2.412,5.409-2.412,5.409
				l3.57,5.603c1.394-2.362,2.895-1.932,2.895-1.932C233.777,113.6,232.908,112.552,232.343,111.544z M245.53,105.195
				c0,0-0.208,0.019-0.29,1.124c0,0.928,0,1.792,0,2.45c0,0.53-0.364,1.739-0.364,1.739s-0.379,0.739-0.642,1.036
				c-0.566,1.008-1.436,2.056-2.762,2.731c0,0,1.502-0.43,2.898,1.932l3.574-5.603C247.945,110.604,249.835,107.313,245.53,105.195z
				"/>
			<path id="_x32__copy_5_2_" fill="#FFFFFF" d="M238.334,40.765c12.017,0,21.502,11.23,21.193,24.722l-0.328,14.34
				c-0.291,12.711-9.629,22.759-20.865,22.759c-11.236,0-20.575-10.048-20.865-22.759l-0.328-14.34
				C216.833,51.995,226.318,40.765,238.334,40.765z"/>
			<path id="_x32__line_2_" fill="#3B434F" d="M260.493,65.043l-0.343,14.923c-0.304,13.228-10.09,23.684-21.863,23.684
				c-11.774,0-21.559-10.456-21.863-23.684l-0.343-14.923c-0.323-14.041,9.615-25.727,22.207-25.727
				C250.878,39.316,260.816,51.002,260.493,65.043z M238.238,40.862c-11.852,0-21.208,11.142-20.903,24.529l0.323,14.228
				c0.287,12.612,9.497,22.581,20.58,22.581c11.083,0,20.294-9.969,20.58-22.581l0.323-14.228
				C259.445,52.004,250.09,40.862,238.238,40.862z"/>
			<path id="usta_2_" fill="#3B434F" d="M248.718,88.503c-1.756,1.525-5.722,2.975-10.336,2.975c-4.614,0-8.58-1.451-10.336-2.975
				c0,0-0.18-0.494,0.084-0.758c0.268-0.268,0.689-0.21,0.689-0.21c1.754,1.526,4.947,2.784,9.563,2.784
				c4.616,0,7.809-1.258,9.563-2.784c0,0,0.429-0.159,0.637,0.049C248.984,87.986,248.718,88.503,248.718,88.503z"/>
			<path id="_x2D__2_" fill="#3B434F" d="M235.195,93.797h6.182v0.966h-6.182V93.797z"/>
			<path id="oko_1_" fill="#3B434F" d="M227.66,68.295c1.067,0,1.932,0.865,1.932,1.932c0,1.067-0.865,1.932-1.932,1.932
				s-1.932-0.865-1.932-1.932C225.728,69.16,226.593,68.295,227.66,68.295z"/>
			<path id="oko_1_1_" fill="#3B434F" d="M249.104,68.295c1.067,0,1.932,0.865,1.932,1.932c0,1.067-0.865,1.932-1.932,1.932
				s-1.932-0.865-1.932-1.932C247.173,69.16,248.037,68.295,249.104,68.295z"/>
			<path id="Ellipse_3_copy_2_" fill="#F5F3EF" d="M227.563,75.443c1.867,0,3.381,0.107,3.381,2.222
				c0,2.181-1.514,2.222-3.381,2.222s-3.381-0.397-3.381-2.222C224.183,75.534,225.696,75.443,227.563,75.443z"/>
			<path id="Ellipse_3_copy_2" fill="#F5F3EF" d="M249.974,75.443c1.867,0,3.381,0.107,3.381,2.222c0,2.181-1.514,2.222-3.381,2.222
				s-3.381-0.397-3.381-2.222C246.593,75.534,248.107,75.443,249.974,75.443z"/>
			<path id="R_copy_1_" fill="#3B434F" d="M243.493,64.796l0.56,0.711l0.347,0.44c0,0,6.147-3.394,10.413,0.522l0.455,0.223
				c0,0-1.051-5.677-10.252-2.356C244.53,64.467,244.024,64.619,243.493,64.796z"/>
			<path id="L_copy" fill="#3B434F" d="M232.852,64.8l-0.56,0.709l-0.347,0.44c0,0-6.147-3.387-10.413,0.521l-0.455,0.223
				c0,0,1.051-5.665,10.252-2.352C231.814,64.472,232.321,64.623,232.852,64.8z"/>
			<path id="Rectangle_19" fill="#3B434F" d="M258.957,56.51h4.057v9.66h-4.057V56.51z"/>
			<path id="Shape_15" fill="#3B444F" d="M214.464,65.279c0,0,4.267-8.216,12.433-6.909c0,0,0.323,1.871,2.079,3.883
				c0,0,1.922-4.653,7.85-5.964c4.709-1.041,9.18-4.795,9.18-4.795s0.695,7.46,9.871,9.537c0,0,8.04,0.994,7.456-3.448
				c-0.583-4.442-5.045-23.778-26.409-20.851c-21.364,2.927-26.382,10.685-22.649,28.352"/>
			<path id="Shape_11_copy_2_" fill="#F7FBFB" d="M215.829,67.219c-0.003,0-0.237-0.187-0.68-0.327
				c-0.221-0.07-0.496-0.127-0.81-0.141c-0.078-0.004-0.159-0.004-0.241-0.002s-0.167,0.008-0.253,0.017
				c-0.171,0.018-0.348,0.051-0.527,0.102c-0.713,0.205-1.441,0.703-1.869,1.732c-0.215,0.514-0.356,1.162-0.394,1.971
				c-0.009,0.202-0.012,0.415-0.008,0.638c0.004,0.223,0.015,0.457,0.034,0.702c0.037,0.49,0.104,1.024,0.203,1.606
				c-0.002-0.001-0.093,1.759,0.536,3.781c0.591,1.977,2.012,4.405,4.634,5.099C216.153,77.378,216.144,72.262,215.829,67.219
				L215.829,67.219z"/>
			<path id="Shape_3_2_" fill="#3B434F" d="M216.354,67.421c0,0-4.568-1.415-4.407,3.281c0,0,0.68,6.809,0.975,7.437
				c0,0,1.794,3.965,4.755,4.14c2.894,0.172,0,0,0,0l0.036,1.278c0,0-5.204-0.667-6.209-6.664l-0.793-5.448
				c0,0-0.616-7.21,5.359-5.376c5.821,1.786,0,0,0,0L216.354,67.421"/>
			<path id="Shape_4_2_" fill="#3B434F" d="M214.846,76.882c0,0-0.256,0.193-0.475,0.193s-0.472-0.193-0.472-0.193l-0.471-4.75
				c0,0,0.65-2.339,3.41-1.103l0.065,1.358c0,0-2.421-0.859-2.371,0.211C214.58,73.627,214.846,76.882,214.846,76.882z"/>
			<path id="Shape_11_copy_x5F_1_2_" fill="#F7FBFB" d="M260.657,67.23c0.003,0,0.238-0.187,0.683-0.326
				c0.222-0.07,0.499-0.127,0.813-0.141c0.079-0.004,0.16-0.004,0.242-0.002c0.083,0.002,0.168,0.008,0.254,0.017
				c0.172,0.018,0.35,0.051,0.529,0.102c0.717,0.205,1.447,0.703,1.877,1.731c0.215,0.514,0.358,1.161,0.395,1.97
				c0.009,0.202,0.012,0.415,0.008,0.638c-0.004,0.223-0.015,0.457-0.034,0.701c-0.037,0.489-0.104,1.023-0.204,1.605
				c0.002-0.001,0.093,1.758-0.539,3.779c-0.594,1.976-2.02,4.402-4.654,5.096C260.331,77.382,260.34,72.27,260.657,67.23
				L260.657,67.23z"/>
			<path id="Shape_3_x5F_1_2_" fill="#3B434F" d="M260.129,67.432c0,0,4.588-1.414,4.426,3.278c0,0-0.683,6.805-0.98,7.432
				c0,0-1.802,3.962-4.775,4.138c-2.906,0.172,0,0,0,0l-0.036,1.277c0,0,5.226-0.667,6.236-6.659l0.797-5.444
				c0,0,0.619-7.205-5.382-5.373c-5.846,1.785,0,0,0,0L260.129,67.432"/>
			<path id="Shape_4_x5F_1_2_" fill="#3B434F" d="M261.643,76.887c0,0,0.257,0.193,0.477,0.193c0.221,0,0.474-0.193,0.474-0.193
				l0.473-4.747c0,0-0.653-2.338-3.425-1.102l-0.066,1.357c0,0,2.432-0.858,2.382,0.21
				C261.911,73.633,261.643,76.887,261.643,76.887z"/>
			<path id="new_vector_shape_done_2_" fill="#3B434F" d="M240.073,76.506c0.113,0,0.225,0,0.338,0
				c0.699,0.949,0.983,2.408,1.352,3.671c0.114,0.391,0.003,1.076-0.097,1.352c-0.366,1.013-1.516,0.995-2.463,1.449
				c-0.254,0.122-0.443,0.332-0.773,0.386c-0.215-0.189-0.474-0.226-0.58-0.531c-0.261-0.359,0.075-0.584,0.338-0.724
				c0.477-0.256,1.949-0.508,2.125-0.966c0.218-0.248,0.073-0.994,0-1.256c-0.187-0.671-0.277-1.231-0.531-1.835
				c-0.169-0.402-0.466-0.825-0.29-1.304C239.639,76.685,239.953,76.614,240.073,76.506z"/>
		</g>
		<g>
			<path id="body-bg-flat" fill="#FFFFFF" d="M32.276,125.796c0,0-2.335-20.47,17.779-22.754h8.607v-3.965
				c0,0,6.055,2.601,12.185,0.29l0.193,3.675h10.058c0,0,17.515,1.749,16.456,22.754H32.276z"/>
			<path id="Rounded_Rectangle_13_copy_3" fill="#3B434F" d="M97.387,126.155L97.387,126.155H32.898l0,0h-1.251l0.312-5.333
				c0.61-10.413,8.814-18.36,18.203-18.36h8.499v1.064h-7.929c-9.049,0-16.957,7.649-17.544,17.673l-0.217,3.7h64.245l-0.12-3.7
				c-0.588-10.023-8.495-17.673-17.544-17.673h-8.028v-1.064h8.54c9.389,0,17.594,7.947,18.203,18.36l0.312,5.333H97.387z"/>
			<path id="neck_copy_7" fill="#3B434F" d="M59.339,98.629v5.965c0,3.095,2.511,5.604,5.609,5.604c3.098,0,5.609-2.509,5.609-5.604
				v-5.842c0.326-0.099,0.648-0.207,0.967-0.323v6.205c0,3.66-2.966,6.628-6.625,6.628c-3.659,0-6.625-2.967-6.625-6.628v-6.389
				C58.626,98.384,58.98,98.512,59.339,98.629z"/>
			<path id="Rounded_Rectangle_2" fill="#3B434F" d="M82.304,115.254l-2.739,5.713c-0.139,0.289-0.485,0.411-0.774,0.272
				c-0.289-0.139-0.411-0.485-0.272-0.774l2.646-5.518l-2.067-3.58c-0.16-0.278-0.065-0.632,0.212-0.793s0.632-0.065,0.793,0.212
				l2.224,3.853C82.441,114.838,82.424,115.075,82.304,115.254z"/>
			<path id="Rounded_Rectangle_2_copy_3" fill="#3B434F" d="M47.544,115.259l2.754,5.731c0.139,0.29,0.488,0.412,0.778,0.273
				c0.291-0.139,0.413-0.487,0.274-0.776l-2.66-5.535l2.078-3.592c0.161-0.278,0.065-0.634-0.214-0.795
				c-0.279-0.161-0.636-0.065-0.797,0.213l-2.236,3.864C47.407,114.842,47.423,115.08,47.544,115.259z"/>
			<path id="Rectangle_24" fill="#3B434F" d="M58.275,102.268h1.064v23.5h-1.064V102.268z"/>
			<path id="Rectangle_24_copy" fill="#3B434F" d="M70.557,102.462h1.064v23.5h-1.064V102.462z"/>
			<path id="Shape_34" fill="#3B434F" d="M62.195,113.783l2.72-2.947l2.947,2.947l-1.587,1.587l2.493,10.2h-7.707l2.72-10.2
				L62.195,113.783z"/>
			<path id="Rectangle_24_copy_4" fill="#3B434F" d="M68.247,125.725l-2.741-10.23l0.57-0.171l0.378-0.402l2.899,10.82
				L68.247,125.725z M60.514,125.605l2.862-10.632l0.185,0.158l0.58,0.387l0.191,0.019l-2.715,10.085L60.514,125.605z"/>
			<path id="Ellipse_6" fill="#3B434F" d="M71.521,116.681l-0.752,0.752l-2.927-2.927c-0.565,0.897-1.562,1.494-2.7,1.494
				c-1.184,0-2.216-0.647-2.766-1.605l-3.055,3.055l-0.754-0.754l6.015-6.015l0.47-0.436l0.47,0.436L71.521,116.681z
				 M62.967,113.804c0.386,0.785,1.192,1.326,2.126,1.326c0.913,0,1.703-0.518,2.099-1.274l-2.138-2.138L62.967,113.804z"/>
			<path id="_x32__copy_5" fill="#FFFFFF" d="M65.19,37.957c12.031,0,21.527,11.243,21.218,24.751L86.08,77.065
				C85.789,89.791,76.44,99.85,65.19,99.85s-20.599-10.059-20.89-22.786l-0.328-14.357C43.664,49.199,53.159,37.957,65.19,37.957z"
				/>
			<path id="_x32__line" fill="#3B434F" d="M87.375,62.263l-0.344,14.94c-0.305,13.243-10.101,23.711-21.889,23.711
				S43.558,90.446,43.253,77.203l-0.344-14.94c-0.324-14.057,9.627-25.757,22.233-25.757S87.698,48.205,87.375,62.263z
				 M65.094,38.053c-11.866,0-21.232,11.155-20.928,24.558l0.324,14.245c0.287,12.627,9.508,22.608,20.604,22.608
				s20.317-9.981,20.604-22.608l0.324-14.245C86.326,49.208,76.96,38.053,65.094,38.053z"/>
			<path id="usta" fill="#3B434F" d="M75.586,85.75c-1.758,1.526-5.728,2.979-10.348,2.979s-8.59-1.452-10.348-2.979
				c0,0-0.18-0.495,0.084-0.759c0.269-0.269,0.69-0.21,0.69-0.21c1.756,1.527,4.953,2.787,9.574,2.787
				c4.621,0,7.818-1.26,9.574-2.787c0,0,0.43-0.16,0.638,0.049C75.853,85.232,75.586,85.75,75.586,85.75z"/>
			<path id="_x2D_" fill="#3B434F" d="M62.047,91.05h6.189v0.967h-6.189V91.05z"/>
			<path id="Shape_11_copy" fill="#FFFFFF" d="M42.885,64.441c-0.003,0-0.237-0.187-0.681-0.327
				c-0.222-0.07-0.497-0.127-0.811-0.141c-0.078-0.004-0.159-0.004-0.242-0.002s-0.167,0.008-0.253,0.017
				c-0.172,0.018-0.349,0.051-0.527,0.103c-0.714,0.205-1.443,0.704-1.871,1.734c-0.215,0.515-0.357,1.163-0.394,1.974
				c-0.009,0.203-0.012,0.415-0.008,0.639c0.004,0.223,0.015,0.458,0.034,0.703c0.037,0.49,0.104,1.025,0.204,1.608
				c-0.002-0.001-0.093,1.761,0.537,3.786c0.592,1.979,2.014,4.41,4.639,5.105C43.21,74.612,43.201,69.491,42.885,64.441
				L42.885,64.441z"/>
			<path id="Shape_3" fill="#3B434F" d="M43.184,64.644c0,0-4.573-1.417-4.412,3.285c0,0,0.681,6.817,0.977,7.446
				c0,0,1.796,3.969,4.76,4.145c2.897,0.172,0,0,0,0l0.036,1.279c0,0-5.21-0.668-6.216-6.672l-0.794-5.454
				c0,0-0.617-7.218,5.365-5.383c5.827,1.788,0,0,0,0L43.184,64.644"/>
			<path id="Shape_4" fill="#3B434F" d="M41.675,74.116c0,0-0.256,0.193-0.476,0.193s-0.473-0.193-0.473-0.193l-0.472-4.756
				c0,0,0.651-2.342,3.414-1.104l0.065,1.36c0,0-2.424-0.86-2.374,0.211C41.408,70.856,41.675,74.116,41.675,74.116z"/>
			<path id="Shape_3_x5F_1" fill="#3B434F" d="M87.011,64.655c0,0,4.593-1.416,4.432,3.282c0,0-0.684,6.813-0.981,7.441
				c0,0-1.804,3.967-4.781,4.142c-2.91,0.172,0,0,0,0l-0.036,1.279c0,0,5.233-0.668,6.243-6.667l0.798-5.45
				c0,0,0.619-7.213-5.388-5.379c-5.853,1.787,0,0,0,0L87.011,64.655"/>
			<path id="R_copy" fill="#3B434F" d="M71.336,62.884c0,0,5.79-3.31,9.926,0.337l1.094,0.17c0,0-1.401-5.099-11.605-1.784
				l0.284,0.951 M71.261,62.557c0,0,5.89-3.383,9.774,0.89l2.001-0.057c0,0-2.495-5.447-12.738-2.01l0.964,1.404"/>
			<path id="R_copy_3" fill="#3B434F" d="M58.894,62.903c0,0-5.771-3.281-9.893,0.334l-1.09,0.168c0,0,1.397-5.054,11.566-1.768
				l-0.283,0.942 M58.968,62.579c0,0-5.871-3.353-9.741,0.882l-1.994-0.057c0,0,2.487-5.399,12.696-1.992l-0.961,1.391"/>
			<path id="fill" fill="#C1BFBD" d="M86.581,64.552c0,0,8.928-23.424-18.563-28.76c0,0-5.754-0.312-10.248-5.668
				c0,0-3.211,4.401-1.354,7.767c0,0-2.363,2.062-8.702,0.42c0,0-0.959,2.049-0.193,4.409c0,0-7.972,3.447-4.173,18.867
				c0.036,0.148,0.074,0.296,0.112,0.446c0,0,3.411-13.636,5.801-13.855c0,0,12.878,7.393,23.784-0.63c0,0,5.385,7.185,11.989,7.557
				C85.034,55.105,86.229,59.738,86.581,64.552z"/>
			<path id="line" fill="#3B434F" d="M87.191,64.745c-0.268,0.728-1.161,0.484-1.161,0.484c-0.352-4.814-1.451-9.477-1.451-9.477
				c-6.691-0.843-11.702-7.253-11.702-7.253c-10.842,7.452-23.597,0.29-23.597,0.29c-2.561,2.123-5.126,13.346-5.126,13.346
				c-0.039-0.15-1.318,0.148-1.354,0c-3.799-15.42,3.965-19.729,3.965-19.729c-0.766-2.36,0.484-4.835,0.484-4.835
				c6.338,1.642,8.317,0.193,8.317,0.193c-1.676-4.197,2.031-8.51,2.031-8.51c4.494,5.356,10.638,5.899,10.638,5.899
				C93.52,40.219,88.984,59.881,87.191,64.745z M67.656,36.409c0,0-5.175-0.282-9.768-5.126c0,0-2.631,3.5-0.774,6.866
				c0,0-2.656,2.609-8.994,0.967c0,0-0.501,1.313,0,3.772c0,0-7.108,3.67-4.642,16.15c0.029,0.149-0.039-0.053,0,0.097
				c0,0,2.973-11.516,5.706-11.605c0,0,13.342,7.553,24.081-0.87c0,0,5.678,7.557,12.282,7.93c0,0,0.573,1.62,1.257,6.383
				C86.804,60.973,92.596,41.162,67.656,36.409z"/>
			<path id="new_vector_shape_done_1" fill="#3B434F" d="M66.931,73.739c0.113,0,0.226,0,0.338,0c0.7,0.95,0.985,2.411,1.354,3.675
				c0.114,0.392,0.003,1.077-0.097,1.354c-0.367,1.014-1.518,0.996-2.466,1.451c-0.255,0.122-0.444,0.333-0.774,0.387
				c-0.215-0.189-0.474-0.227-0.58-0.532c-0.261-0.36,0.075-0.584,0.338-0.725c0.477-0.256,1.951-0.508,2.128-0.967
				c0.218-0.248,0.073-0.995,0-1.257c-0.187-0.671-0.277-1.232-0.532-1.837c-0.169-0.402-0.466-0.826-0.29-1.306
				C66.496,73.918,66.811,73.847,66.931,73.739z"/>
			<path id="oko" fill="#3B434F" d="M54.504,65.519c1.068,0,1.934,0.866,1.934,1.934s-0.866,1.934-1.934,1.934
				s-1.934-0.866-1.934-1.934S53.435,65.519,54.504,65.519z"/>
			<path id="oko_1" fill="#3B434F" d="M75.973,65.519c1.068,0,1.934,0.866,1.934,1.934s-0.866,1.934-1.934,1.934
				c-1.068,0-1.934-0.866-1.934-1.934S74.905,65.519,75.973,65.519z"/>
			<path id="Ellipse_3" fill="#F5F3EF" d="M76.843,72.675c1.335,0,2.418,1.082,2.418,2.418c0,1.335-1.082,2.418-2.418,2.418
				c-1.335,0-2.418-1.082-2.418-2.418C74.426,73.758,75.508,72.675,76.843,72.675z"/>
			<path id="Ellipse_3_copy" fill="#F4F3EF" d="M53.44,72.675c1.335,0,2.418,1.082,2.418,2.418c0,1.335-1.082,2.418-2.418,2.418
				c-1.335,0-2.418-1.082-2.418-2.418C51.022,73.758,52.104,72.675,53.44,72.675z"/>
		</g>
		<g>
			<path id="Shape_12_1_" fill="#3B434F" d="M175.34,79.643c-3.139,13.732-19.209,8.354-24.695,6.072v-0.015
				c-5.486,2.283-21.555,7.665-24.695-6.077c0,0,5.631,0.061,3.941-17.602c0,0-6.1-34.989,20.754-32.064v0.057
				c26.855-2.922,20.754,32.04,20.754,32.04C169.709,79.704,175.34,79.643,175.34,79.643z"/>
			<path id="body-bg-flat_copy_4_" fill="#FFFFFF" d="M128.689,96.345c0,0-1.018-13.852,12.019-15.145h5.845v-2.693
				c0,0,4.112,1.766,8.275,0.197l0.131,2.496h6.83c0,0,11.697,0.459,11.165,15.276L128.689,96.345z"/>
			<path id="Rounded_Rectangle_13_3_" fill="#3B434F" d="M173.07,96.897L173.07,96.897h-43.796l0,0h-0.849l0.212-3.622
				c0.414-7.072,5.986-12.469,12.362-12.469h4.853v0.722h-4.466c-6.145,0-11.516,5.195-11.915,12.002l-0.147,2.513h43.63
				l-0.082-2.513c-0.399-6.807-5.769-12.002-11.915-12.002h-5.977v-0.722h6.326c6.376,0,11.948,5.397,12.362,12.469l0.212,3.622
				H173.07z"/>
			<path id="Ellipse_4_3_" fill="#3B434F" d="M150.448,88.95c-3.518,0-6.371-2.852-6.371-6.371c0-0.616,0.089-1.21,0.252-1.773
				h0.011h0.676h1.163v0.722h-1.347c-0.064,0.341-0.098,0.692-0.098,1.051c0,3.156,2.558,5.714,5.714,5.714s5.714-2.558,5.714-5.714
				c0-0.359-0.035-0.71-0.098-1.051h-1.347v-0.722h1.163h0.676h0.011c0.163,0.563,0.252,1.158,0.252,1.773
				C156.819,86.098,153.967,88.95,150.448,88.95z"/>
			<path id="neck_3_" fill="#3B434F" d="M146.705,78.204v4.051c0,2.102,1.705,3.806,3.809,3.806s3.809-1.704,3.809-3.806v-3.967
				c0.221-0.067,0.44-0.14,0.657-0.219v4.214c0,2.486-2.014,4.501-4.499,4.501c-2.485,0-4.499-2.015-4.499-4.501v-4.339
				C146.22,78.037,146.461,78.124,146.705,78.204z"/>
			<path id="_x32__copy_5_9_" fill="#FFFFFF" d="M150.679,36.999c8.17,0,14.619,7.635,14.41,16.809l-0.223,9.75
				c-0.198,8.643-6.547,15.474-14.187,15.474c-7.64,0-13.989-6.832-14.187-15.474l-0.223-9.75
				C136.059,44.635,142.508,36.999,150.679,36.999z"/>
			<path id="_x32__line_9_" fill="#3B434F" d="M165.745,53.506l-0.234,10.146c-0.207,8.994-6.86,16.103-14.865,16.103
				s-14.658-7.109-14.865-16.103l-0.234-10.146c-0.22-9.547,6.538-17.492,15.099-17.492S165.964,43.96,165.745,53.506z
				 M150.613,37.065c-8.059,0-14.419,7.576-14.213,16.678l0.22,9.674c0.195,8.575,6.457,15.353,13.993,15.353
				c7.535,0,13.798-6.778,13.993-15.353l0.22-9.674C165.032,44.641,158.672,37.065,150.613,37.065z"/>
			<path id="usta_10_" fill="#3B434F" d="M157.739,69.457c-1.194,1.037-3.89,2.023-7.028,2.023s-5.834-0.986-7.028-2.023
				c0,0-0.122-0.336,0.057-0.515c0.183-0.183,0.468-0.143,0.468-0.143c1.193,1.037,3.364,1.893,6.502,1.893
				c3.139,0,5.31-0.855,6.502-1.893c0,0,0.292-0.108,0.433,0.033C157.92,69.106,157.739,69.457,157.739,69.457z"/>
			<path id="_x2D__11_" fill="#3B434F" d="M148.544,73.056h4.203v0.657h-4.203V73.056z"/>
			<path id="Shape_11_copy_12_" fill="#FFFFFF" d="M135.53,54.986c-0.002,0-0.161-0.127-0.462-0.222
				c-0.15-0.047-0.338-0.086-0.551-0.096c-0.053-0.002-0.108-0.003-0.164-0.001c-0.056,0.002-0.113,0.005-0.172,0.012
				c-0.117,0.012-0.237,0.035-0.358,0.07c-0.485,0.139-0.98,0.478-1.271,1.178c-0.146,0.35-0.242,0.79-0.268,1.34
				c-0.006,0.138-0.008,0.282-0.006,0.434c0.003,0.152,0.01,0.311,0.023,0.477c0.025,0.333,0.071,0.696,0.138,1.092
				c-0.001,0-0.063,1.196,0.365,2.571c0.402,1.344,1.368,2.995,3.151,3.467C135.751,61.893,135.745,58.415,135.53,54.986
				L135.53,54.986z"/>
			<path id="Shape_3_12_" fill="#3B434F" d="M135.734,55.123c0,0-3.106-0.962-2.997,2.231c0,0,0.462,4.63,0.663,5.057
				c0,0,1.22,2.696,3.233,2.815c1.967,0.117,0,0,0,0l0.024,0.869c0,0-3.538-0.454-4.221-4.531l-0.539-3.704
				c0,0-0.419-4.902,3.643-3.656c3.957,1.214,0,0,0,0L135.734,55.123"/>
			<path id="Shape_4_12_" fill="#3B434F" d="M134.709,61.556c0,0-0.174,0.131-0.323,0.131c-0.149,0-0.321-0.131-0.321-0.131
				l-0.321-3.23c0,0,0.442-1.591,2.319-0.75l0.044,0.924c0,0-1.646-0.584-1.612,0.143C134.528,59.343,134.709,61.556,134.709,61.556
				z"/>
			<path id="Shape_11_copy_x5F_1_11_" fill="#FFFFFF" d="M165.702,54.993c0.002,0,0.162-0.127,0.464-0.222
				c0.151-0.047,0.339-0.086,0.553-0.096c0.053-0.002,0.109-0.003,0.165-0.001c0.056,0.002,0.114,0.005,0.172,0.012
				c0.117,0.012,0.238,0.035,0.36,0.07c0.487,0.139,0.984,0.478,1.276,1.177c0.147,0.35,0.243,0.789,0.269,1.339
				c0.006,0.138,0.008,0.282,0.006,0.434c-0.003,0.152-0.01,0.311-0.023,0.477c-0.025,0.333-0.071,0.696-0.139,1.091
				c0.001,0,0.063,1.195-0.366,2.569c-0.404,1.343-1.374,2.993-3.164,3.465C165.48,61.896,165.487,58.42,165.702,54.993
				L165.702,54.993z"/>
			<path id="Shape_3_x5F_1_12_" fill="#3B434F" d="M165.497,55.131c0,0,3.119-0.962,3.01,2.229c0,0-0.464,4.627-0.666,5.053
				c0,0-1.225,2.694-3.247,2.813c-1.976,0.117,0,0,0,0l-0.025,0.868c0,0,3.554-0.453,4.24-4.528l0.542-3.702
				c0,0,0.421-4.899-3.659-3.653c-3.975,1.213,0,0,0,0L165.497,55.131"/>
			<path id="Shape_4_x5F_1_12_" fill="#3B434F" d="M166.527,61.559c0,0,0.175,0.131,0.325,0.131s0.322-0.131,0.322-0.131
				l0.322-3.228c0,0-0.444-1.59-2.329-0.75l-0.045,0.923c0,0,1.654-0.584,1.619,0.143C166.709,59.347,166.527,61.559,166.527,61.559
				z"/>
			<path id="new_vector_shape_done_12_" fill="#3B434F" d="M151.861,61.3c0.077,0,0.153,0,0.23,0
				c0.475,0.645,0.669,1.637,0.919,2.496c0.078,0.266,0.002,0.731-0.066,0.919c-0.249,0.689-1.031,0.677-1.675,0.985
				c-0.173,0.083-0.302,0.226-0.525,0.263c-0.146-0.129-0.322-0.154-0.394-0.361c-0.177-0.244,0.051-0.397,0.23-0.493
				c0.324-0.174,1.325-0.345,1.445-0.657c0.148-0.169,0.05-0.676,0-0.854c-0.127-0.456-0.188-0.837-0.361-1.248
				c-0.115-0.273-0.317-0.561-0.197-0.887C151.565,61.422,151.779,61.373,151.861,61.3z"/>
			<path id="Rounded_Rectangle_9_3_" fill="#3B434F" d="M142.304,56.663h2.364c0.326,0,0.591,0.318,0.591,0.709
				c0,0.392-0.265,0.709-0.591,0.709h-2.364c-0.326,0-0.591-0.318-0.591-0.709C141.713,56.981,141.978,56.663,142.304,56.663z"/>
			<path id="Rounded_Rectangle_9_copy_3_" fill="#3B434F" d="M156.754,56.506h2.364c0.326,0,0.591,0.318,0.591,0.709
				c0,0.392-0.265,0.709-0.591,0.709h-2.364c-0.326,0-0.591-0.318-0.591-0.709C156.162,56.823,156.427,56.506,156.754,56.506z"/>
			<path id="Ellipse_3_7_" fill="#EDF1F1" d="M158.592,60.578c0.907,0,1.642,0.735,1.642,1.642s-0.735,1.642-1.642,1.642
				c-0.907,0-1.642-0.735-1.642-1.642S157.686,60.578,158.592,60.578z"/>
			<path id="Ellipse_3_copy_10_" fill="#EDF1F1" d="M142.698,60.578c0.907,0,1.642,0.735,1.642,1.642s-0.735,1.642-1.642,1.642
				c-0.907,0-1.642-0.735-1.642-1.642S141.792,60.578,142.698,60.578z"/>
			<path id="Shape_1_copy_5_2_" fill="#3B434F" d="M163.781,54.535v4.86c0,1.188-1.159,3.041-3.046,3.147
				c-0.277-0.013-5.886,0.005-5.886,0.005c-2.521,0-3.021-3.021-3.021-3.021v-3.284h-2.364v3.284c0,0-0.5,3.021-3.021,3.021
				c0,0-5.608-0.019-5.886-0.005c-1.888-0.106-3.046-1.959-3.046-3.147v-4.86h-2.102v-1.314h12.216c0,0,1.839,0.297,1.839,1.576
				h2.364c0-1.279,1.839-1.576,1.839-1.576h12.216v1.314H163.781z M148.15,55.192c0-0.468-0.525-0.525-0.525-0.525h-8.801v4.597
				c0,1.432,1.97,1.97,1.97,1.97h5.386c1.853,0,1.97-1.97,1.97-1.97S148.15,55.66,148.15,55.192z M162.467,54.667h-8.801
				c0,0-0.525,0.057-0.525,0.525c0,0.468,0,4.072,0,4.072s0.117,1.97,1.97,1.97h5.386c0,0,1.97-0.538,1.97-1.97V54.667z
				 M160.628,62.548c0.036-0.001,0.071-0.003,0.106-0.005C160.764,62.544,160.734,62.546,160.628,62.548z M140.556,62.543
				c0.035,0.002,0.07,0.005,0.106,0.005C140.556,62.546,140.527,62.544,140.556,62.543z"/>
			<path id="Rounded_Rectangle_6_1_" fill="#3B434F" d="M150.645,44.164V29.62c0.044,0,0.087-0.002,0.131-0.002
				c9.213,0,16.682,7.469,16.682,16.682v5.361c-0.003,0.187-0.004,0.37,0,0.55C167.459,52.212,151.966,48.022,150.645,44.164z
				 M133.832,52.212c0.004-0.179,0.003-0.363,0-0.55v-5.361c0-9.213,7.469-16.682,16.682-16.682c0.044,0,0.088,0.001,0.131,0.002
				v14.543C149.325,48.022,133.832,52.212,133.832,52.212z"/>
		</g>
	</g>
</g>
<g>
</g>
<g>
</g>
<g>
</g>
<g>
</g>
<g>
</g>
<g>
</g>
<g>
</g>
<g>
</g>
<g>
</g>
<g>
</g>
<g>
</g>
<g>
</g>
<g>
</g>
<g>
</g>
<g>
</g>
</svg>
