<?xml version="1.0" encoding="utf-8"?>
<!-- Generator: Adobe Illustrator 17.0.0, SVG Export Plug-In . SVG Version: 6.00 Build 0)  -->
<!DOCTYPE svg PUBLIC "-//W3C//DTD SVG 1.1//EN" "http://www.w3.org/Graphics/SVG/1.1/DTD/svg11.dtd">
<svg version="1.1" id="Layer_1" xmlns="http://www.w3.org/2000/svg" xmlns:xlink="http://www.w3.org/1999/xlink" x="0px" y="0px"
	 width="87px" height="84px" viewBox="0 0 87 84" enable-background="new 0 0 87 84" xml:space="preserve">
<g>
	<path fill-rule="evenodd" clip-rule="evenodd" fill="#3B434F" d="M44.499,16.705c-2.859,0-5.448,1.16-7.321,3.033l-0.045,0.041
		c-1.846,1.871-2.988,4.443-2.988,7.281c0,2.859,1.16,5.448,3.033,7.321c1.873,1.873,4.462,3.033,7.321,3.033
		c2.859,0,5.448-1.16,7.321-3.033c1.873-1.873,3.032-4.462,3.032-7.321c0-2.86-1.159-5.45-3.03-7.324l-0.002,0.002
		C49.947,17.864,47.358,16.705,44.499,16.705L44.499,16.705z M35.949,18.508c2.187-2.187,5.211-3.542,8.55-3.542
		s6.364,1.355,8.551,3.542l-0.002,0.002l0.002,0.002c2.188,2.189,3.541,5.211,3.541,8.548c0,3.339-1.355,6.363-3.541,8.55
		c-2.187,2.187-5.211,3.541-8.551,3.541s-6.363-1.355-8.55-3.541c-2.187-2.187-3.541-5.211-3.541-8.55
		c0-3.31,1.333-6.309,3.489-8.494L35.949,18.508z"/>
	<path fill-rule="evenodd" clip-rule="evenodd" fill="#3B434F" d="M44.499,21.194c-0.69,0-1.315,0.28-1.766,0.732
		c-0.451,0.452-0.732,1.077-0.732,1.766c0,0.69,0.28,1.315,0.732,1.766c0.452,0.451,1.077,0.732,1.766,0.732s1.315-0.28,1.766-0.732
		c0.451-0.452,0.732-1.077,0.732-1.766c0-0.69-0.28-1.315-0.732-1.766C45.814,21.475,45.189,21.194,44.499,21.194L44.499,21.194z
		 M41.504,20.697c0.766-0.766,1.826-1.241,2.996-1.241s2.23,0.475,2.996,1.241c0.766,0.766,1.241,1.826,1.241,2.996
		c0,1.17-0.475,2.23-1.241,2.996c-0.766,0.766-1.826,1.241-2.996,1.241s-2.23-0.475-2.996-1.241
		c-0.766-0.766-1.241-1.826-1.241-2.996C40.263,22.522,40.738,21.462,41.504,20.697z"/>
	<path fill-rule="evenodd" clip-rule="evenodd" fill="#3B434F" d="M40.112,29.897c-0.184,0.205-0.35,0.422-0.5,0.649
		c-0.198,0.299-0.371,0.617-0.513,0.949c0.607,0.736,1.359,1.349,2.214,1.787c0.95,0.487,2.034,0.764,3.186,0.764
		s2.236-0.276,3.186-0.764c0.855-0.438,1.609-1.05,2.215-1.786c-0.14-0.328-0.313-0.646-0.513-0.946l-0.033-0.053
		c-0.143-0.209-0.298-0.411-0.467-0.6c-0.523,0.37-1.096,0.677-1.702,0.907c-0.84,0.317-1.747,0.492-2.686,0.492
		s-1.846-0.175-2.686-0.492C41.207,30.574,40.634,30.268,40.112,29.897L40.112,29.897z M38.167,29.59
		c0.371-0.558,0.812-1.063,1.306-1.499l0.001,0.001c0.323-0.285,0.815-0.289,1.146,0.002c0.525,0.464,1.137,0.836,1.805,1.089
		c0.638,0.241,1.339,0.374,2.074,0.374s1.436-0.133,2.074-0.374c0.661-0.249,1.268-0.617,1.79-1.075
		c0.322-0.301,0.827-0.312,1.164-0.014c0.477,0.421,0.905,0.905,1.263,1.433l0.042,0.058c0.359,0.539,0.655,1.139,0.87,1.779h-0.001
		c0.085,0.256,0.051,0.547-0.118,0.781c-0.805,1.119-1.873,2.043-3.11,2.677c-1.196,0.614-2.548,0.96-3.975,0.96
		s-2.779-0.347-3.975-0.96c-1.236-0.634-2.305-1.559-3.109-2.677c-0.157-0.219-0.211-0.507-0.119-0.781
		C37.51,30.73,37.807,30.131,38.167,29.59z"/>
	<path fill-rule="evenodd" clip-rule="evenodd" fill="#3B434F" d="M28.788,43.641c-2.859,0-5.448,1.16-7.321,3.032
		c-1.873,1.873-3.032,4.462-3.032,7.321c0,2.859,1.159,5.448,3.032,7.321c1.873,1.873,4.462,3.033,7.321,3.033
		s5.448-1.16,7.321-3.033c1.873-1.873,3.032-4.462,3.032-7.321c0-2.859-1.16-5.448-3.032-7.321
		C34.236,44.801,31.647,43.641,28.788,43.641L28.788,43.641z M20.237,45.444c2.187-2.187,5.211-3.541,8.551-3.541
		s6.364,1.355,8.551,3.541c2.187,2.187,3.541,5.211,3.541,8.551c0,3.339-1.354,6.363-3.541,8.55
		c-2.187,2.187-5.211,3.541-8.551,3.541s-6.364-1.355-8.551-3.541c-2.186-2.187-3.541-5.211-3.541-8.55
		C16.696,50.655,18.051,47.631,20.237,45.444z"/>
	<path fill-rule="evenodd" clip-rule="evenodd" fill="#3B434F" d="M28.788,48.13c-0.69,0-1.315,0.28-1.766,0.732
		c-0.451,0.452-0.732,1.077-0.732,1.766s0.28,1.315,0.732,1.766c0.452,0.451,1.077,0.732,1.766,0.732
		c0.692,0,1.317-0.278,1.765-0.728l0.002-0.002l-0.002-0.002c0.452-0.452,0.732-1.077,0.732-1.766s-0.28-1.315-0.732-1.766
		l-0.044-0.047C30.065,48.39,29.457,48.13,28.788,48.13L28.788,48.13z M25.792,47.632c0.766-0.766,1.826-1.241,2.996-1.241
		c1.138,0,2.173,0.452,2.935,1.186l0.06,0.054c0.766,0.766,1.241,1.826,1.241,2.996s-0.475,2.23-1.241,2.996l-0.002-0.002
		c-0.768,0.768-1.826,1.243-2.993,1.243c-1.17,0-2.23-0.475-2.996-1.241c-0.766-0.766-1.241-1.826-1.241-2.996
		S25.027,48.398,25.792,47.632z"/>
	<path fill-rule="evenodd" clip-rule="evenodd" fill="#3B434F" d="M24.4,56.832c-0.182,0.204-0.349,0.422-0.5,0.649l-0.002,0.003
		l0.002,0.001c-0.2,0.301-0.373,0.617-0.513,0.946c0.605,0.736,1.359,1.347,2.213,1.786c0.95,0.487,2.035,0.764,3.188,0.764
		s2.236-0.276,3.186-0.764c0.855-0.438,1.609-1.05,2.215-1.786c-0.143-0.333-0.316-0.652-0.514-0.951
		c-0.151-0.228-0.318-0.444-0.5-0.649c-0.523,0.37-1.096,0.677-1.702,0.907c-0.84,0.317-1.746,0.492-2.685,0.492
		s-1.846-0.174-2.686-0.492C25.496,57.509,24.923,57.202,24.4,56.832L24.4,56.832z M22.457,56.522
		c0.362-0.545,0.798-1.045,1.288-1.479c0.321-0.301,0.826-0.31,1.163-0.013c0.525,0.464,1.138,0.836,1.806,1.088
		c0.638,0.241,1.339,0.375,2.074,0.375s1.435-0.133,2.073-0.375c0.661-0.249,1.268-0.616,1.79-1.074
		c0.322-0.301,0.827-0.312,1.164-0.014c0.497,0.438,0.938,0.943,1.306,1.495c0.36,0.544,0.657,1.141,0.87,1.777h-0.001
		c0.085,0.255,0.051,0.547-0.118,0.781c-0.804,1.12-1.872,2.043-3.108,2.677c-1.196,0.614-2.548,0.961-3.975,0.961
		s-2.78-0.347-3.976-0.961c-1.237-0.634-2.304-1.558-3.108-2.677c-0.157-0.219-0.211-0.507-0.119-0.781
		c0.216-0.64,0.511-1.241,0.87-1.78L22.457,56.522z"/>
	<path fill-rule="evenodd" clip-rule="evenodd" fill="#3B434F" d="M60.212,43.641c-2.859,0-5.448,1.16-7.321,3.032
		c-1.873,1.873-3.033,4.462-3.033,7.321c0,2.859,1.16,5.448,3.033,7.321c1.873,1.873,4.462,3.033,7.321,3.033
		c2.858,0,5.448-1.16,7.321-3.033c1.873-1.873,3.033-4.462,3.033-7.321c0-2.859-1.16-5.448-3.033-7.321
		C65.66,44.801,63.071,43.641,60.212,43.641L60.212,43.641z M51.661,45.444c2.187-2.187,5.211-3.541,8.551-3.541
		c3.339,0,6.363,1.355,8.55,3.541c2.187,2.187,3.542,5.211,3.542,8.551c0,3.339-1.355,6.363-3.542,8.55
		c-2.187,2.187-5.211,3.541-8.55,3.541c-3.339,0-6.364-1.355-8.551-3.541c-2.187-2.187-3.542-5.211-3.542-8.55
		C48.12,50.655,49.474,47.631,51.661,45.444z"/>
	<path fill-rule="evenodd" clip-rule="evenodd" fill="#3B434F" d="M60.212,48.13c-0.69,0-1.315,0.28-1.766,0.732
		c-0.452,0.452-0.732,1.077-0.732,1.766s0.28,1.315,0.732,1.766c0.451,0.451,1.077,0.732,1.766,0.732
		c0.691,0,1.316-0.278,1.765-0.728l0.002-0.002l-0.002-0.002c0.451-0.452,0.732-1.077,0.732-1.766s-0.28-1.315-0.732-1.766
		l-0.044-0.047C61.488,48.39,60.881,48.13,60.212,48.13L60.212,48.13z M57.216,47.632c0.766-0.766,1.826-1.241,2.996-1.241
		c1.138,0,2.172,0.452,2.934,1.186l0.06,0.054c0.766,0.766,1.241,1.826,1.241,2.996s-0.475,2.23-1.241,2.996l-0.002-0.002
		c-0.768,0.768-1.826,1.243-2.992,1.243c-1.17,0-2.23-0.475-2.996-1.241c-0.766-0.766-1.241-1.826-1.241-2.996
		S56.451,48.398,57.216,47.632z"/>
	<path fill-rule="evenodd" clip-rule="evenodd" fill="#3B434F" d="M55.824,56.832c-0.182,0.204-0.349,0.422-0.5,0.649l-0.002,0.003
		l0.002,0.001c-0.2,0.301-0.373,0.617-0.513,0.946c0.606,0.736,1.359,1.347,2.214,1.786c0.95,0.487,2.035,0.764,3.188,0.764
		c1.152,0,2.236-0.276,3.186-0.764c0.855-0.438,1.607-1.05,2.213-1.786c-0.142-0.331-0.314-0.649-0.513-0.947l-0.034-0.054
		c-0.143-0.209-0.299-0.409-0.466-0.598c-0.523,0.37-1.096,0.677-1.702,0.907c-0.84,0.317-1.746,0.492-2.684,0.492
		c-0.939,0-1.846-0.174-2.686-0.492C56.92,57.509,56.347,57.202,55.824,56.832L55.824,56.832z M53.881,56.522
		c0.362-0.545,0.798-1.045,1.288-1.479c0.321-0.301,0.826-0.31,1.163-0.013c0.525,0.464,1.138,0.836,1.806,1.088
		c0.638,0.241,1.339,0.375,2.074,0.375c0.734,0,1.434-0.133,2.072-0.375c0.661-0.249,1.268-0.616,1.79-1.074
		c0.322-0.301,0.827-0.312,1.164-0.014c0.477,0.422,0.902,0.903,1.261,1.431l0.044,0.06c0.36,0.541,0.656,1.14,0.871,1.778
		l-0.002,0.001c0.086,0.257,0.052,0.548-0.117,0.783c-0.805,1.119-1.873,2.043-3.11,2.677c-1.196,0.614-2.548,0.961-3.974,0.961
		c-1.427,0-2.78-0.347-3.976-0.961c-1.237-0.634-2.304-1.558-3.109-2.677c-0.157-0.219-0.211-0.507-0.119-0.781
		c0.215-0.64,0.511-1.241,0.87-1.78L53.881,56.522z"/>
	<path fill-rule="evenodd" clip-rule="evenodd" fill="#3B434F" d="M53.67,41.027c0.239,0.414,0.097,0.945-0.316,1.184
		c-0.414,0.239-0.945,0.098-1.184-0.316l-0.549-0.943l-0.549-0.943c-0.239-0.414-0.097-0.945,0.316-1.184
		c0.414-0.239,0.945-0.098,1.184,0.316l0.549,0.943L53.67,41.027z"/>
	<path fill-rule="evenodd" clip-rule="evenodd" fill="#3B434F" d="M43.377,54.864c-0.479,0-0.869-0.39-0.869-0.869
		s0.39-0.869,0.869-0.869h2.245c0.479,0,0.869,0.39,0.869,0.869s-0.39,0.869-0.869,0.869H43.377z"/>
	<path fill-rule="evenodd" clip-rule="evenodd" fill="#3B434F" d="M36.831,41.895c-0.239,0.414-0.771,0.555-1.184,0.316
		s-0.555-0.771-0.316-1.184l0.549-0.943l0.549-0.943c0.239-0.414,0.771-0.555,1.184-0.316c0.414,0.239,0.555,0.771,0.316,1.184
		l-0.549,0.943L36.831,41.895z"/>
</g>
<g>
</g>
<g>
</g>
<g>
</g>
<g>
</g>
<g>
</g>
<g>
</g>
<g>
</g>
<g>
</g>
<g>
</g>
<g>
</g>
<g>
</g>
<g>
</g>
<g>
</g>
<g>
</g>
<g>
</g>
</svg>
