<?xml version="1.0" encoding="utf-8"?>
<!-- Generator: Adobe Illustrator 17.0.0, SVG Export Plug-In . SVG Version: 6.00 Build 0)  -->
<!DOCTYPE svg PUBLIC "-//W3C//DTD SVG 1.1//EN" "http://www.w3.org/Graphics/SVG/1.1/DTD/svg11.dtd">
<svg version="1.1" id="Layer_1" xmlns="http://www.w3.org/2000/svg" xmlns:xlink="http://www.w3.org/1999/xlink" x="0px" y="0px"
	 width="87px" height="84px" viewBox="0 0 87 84" enable-background="new 0 0 87 84" xml:space="preserve">
<g>
	<path fill-rule="evenodd" clip-rule="evenodd" fill="#3B434F" d="M64.774,34.462c-0.529,0-0.961-0.431-0.961-0.961
		c0-0.53,0.431-0.961,0.961-0.961h5.69v-3.039h-4.36c-0.53,0-0.961-0.431-0.961-0.961c0-0.529,0.431-0.96,0.961-0.96h5.296h0.025
		c0.53,0,0.961,0.431,0.961,0.96v4.935v0.025c0,0.53-0.431,0.961-0.961,0.961H64.774L64.774,34.462z M50.271,27.58
		c0.53,0,0.961,0.431,0.961,0.96c0,0.53-0.431,0.961-0.961,0.961H12.853v3.039h36.089c0.53,0,0.961,0.431,0.961,0.961
		c0,0.53-0.431,0.961-0.961,0.961H11.917h-0.025c-0.529,0-0.961-0.431-0.961-0.961v-4.935v-0.025c0-0.529,0.431-0.96,0.961-0.96
		H50.271z"/>
	<path fill-rule="evenodd" clip-rule="evenodd" fill="#3B434F" d="M63.016,17.687l-3.622-0.971L51.32,46.845l0.452,5.564
		l3.169-4.585L63.016,17.687L63.016,17.687z M58.963,14.615l5.475,1.467c0.511,0.136,0.815,0.662,0.679,1.174l-8.364,31.216
		l-0.003-0.001c-0.028,0.103-0.073,0.204-0.136,0.297l-4.759,6.884c-0.154,0.256-0.425,0.438-0.746,0.463
		c-0.527,0.041-0.99-0.354-1.031-0.881l-0.684-8.401c-0.008-0.105,0.001-0.214,0.029-0.322l8.365-31.216
		C57.925,14.783,58.451,14.479,58.963,14.615z"/>
	<path fill-rule="evenodd" clip-rule="evenodd" fill="#3B434F" d="M50.899,47.541c-0.432,0.302-1.03,0.196-1.331-0.236
		c-0.302-0.432-0.196-1.03,0.236-1.331c0.22-0.154,0.448-0.287,0.677-0.392c1.005-0.465,2.146-0.528,3.187-0.248
		c1.04,0.278,1.998,0.904,2.638,1.81c0.15,0.212,0.281,0.44,0.392,0.68c0.221,0.48,0.011,1.05-0.468,1.271
		c-0.48,0.221-1.05,0.011-1.271-0.468c-0.061-0.133-0.137-0.263-0.22-0.381c-0.37-0.525-0.94-0.892-1.565-1.059
		c-0.627-0.168-1.305-0.135-1.889,0.135C51.146,47.385,51.016,47.46,50.899,47.541z"/>
	<path fill-rule="evenodd" clip-rule="evenodd" fill="#3B434F" d="M50.108,54.911c0.136-0.511,0.662-0.815,1.174-0.679
		c0.511,0.136,0.815,0.662,0.679,1.174l-0.588,2.191c-0.136,0.511-0.662,0.815-1.174,0.679c-0.511-0.136-0.815-0.662-0.679-1.174
		L50.108,54.911z"/>
	<path fill-rule="evenodd" clip-rule="evenodd" fill="#3B434F" d="M64.438,16.082c0.511,0.136,0.815,0.662,0.679,1.174
		s-0.662,0.815-1.174,0.679l-1.369-0.366l-1.369-0.367l-1.369-0.366l-1.369-0.367c-0.511-0.136-0.815-0.662-0.679-1.174l0.458-1.711
		l0.458-1.711l0.459-1.711l0.458-1.711c0.136-0.511,0.662-0.815,1.174-0.679l1.369,0.367l1.369,0.366l1.369,0.366l1.37,0.367
		c0.511,0.136,0.815,0.662,0.679,1.174l-0.459,1.711l-0.458,1.711c-0.136,0.511-0.662,0.815-1.174,0.679
		c-0.511-0.136-0.815-0.662-0.679-1.174l0.458-1.711l0.211-0.786l-0.442-0.119l-1.369-0.366L61.671,9.99l-0.443-0.119l-0.21,0.784
		l-0.459,1.711L60.1,14.077l-0.211,0.786l0.442,0.119l1.369,0.366l1.369,0.367L64.438,16.082z"/>
	<path fill-rule="evenodd" clip-rule="evenodd" fill="#3B434F" d="M68.876,12.249c0.136-0.511,0.662-0.815,1.174-0.679
		c0.511,0.136,0.815,0.662,0.679,1.174l-3.13,11.681c-0.136,0.511-0.662,0.815-1.174,0.679c-0.511-0.136-0.815-0.662-0.679-1.174
		L68.876,12.249z"/>
	<path fill-rule="evenodd" clip-rule="evenodd" fill="#3B434F" d="M69.462,13.761c0.511,0.136,0.815,0.662,0.679,1.174
		c-0.136,0.511-0.662,0.815-1.174,0.679l-4.106-1.101c-0.511-0.136-0.815-0.662-0.679-1.174c0.136-0.511,0.662-0.815,1.174-0.679
		L69.462,13.761z"/>
	<path fill-rule="evenodd" clip-rule="evenodd" fill="#3B434F" d="M45.378,56.788c0.53,0,0.961,0.431,0.961,0.961
		c0,0.529-0.431,0.961-0.961,0.961H19.334c-0.529,0-0.961-0.431-0.961-0.961c0-0.53,0.431-0.961,0.961-0.961H45.378z"/>
	<path fill-rule="evenodd" clip-rule="evenodd" fill="#3B434F" d="M63.983,44.386c0.529,0,0.961,0.431,0.961,0.961
		c0,0.529-0.431,0.96-0.961,0.96h-2.384c-0.53,0-0.961-0.431-0.961-0.96c0-0.53,0.431-0.961,0.961-0.961H63.983L63.983,44.386z
		 M45.767,44.386c0.529,0,0.961,0.431,0.961,0.961c0,0.529-0.432,0.96-0.961,0.96H19.334c-0.529,0-0.961-0.431-0.961-0.96
		c0-0.53,0.431-0.961,0.961-0.961H45.767z"/>
	<path fill-rule="evenodd" clip-rule="evenodd" fill="#3B434F" d="M63.983,39.424c0.529,0,0.961,0.431,0.961,0.961
		c0,0.529-0.431,0.96-0.961,0.96h-1.055c-0.529,0-0.96-0.431-0.96-0.96c0-0.53,0.431-0.961,0.96-0.961H63.983L63.983,39.424z
		 M47.097,39.424c0.53,0,0.961,0.431,0.961,0.961c0,0.529-0.431,0.96-0.961,0.96H19.334c-0.529,0-0.961-0.431-0.961-0.96
		c0-0.53,0.431-0.961,0.961-0.961H47.097z"/>
	<path fill-rule="evenodd" clip-rule="evenodd" fill="#3B434F" d="M10.932,38.462c0-0.529,0.431-0.961,0.961-0.961
		c0.53,0,0.961,0.431,0.961,0.961v27.285c0,0.415,0.172,0.796,0.448,1.072l0.041,0.044c0.269,0.249,0.633,0.404,1.031,0.404h54.571
		c0.417,0,0.797-0.17,1.073-0.442l0.005-0.005c0.272-0.274,0.442-0.655,0.442-1.073V38.462c0-0.529,0.431-0.961,0.961-0.961
		c0.53,0,0.961,0.431,0.961,0.961v27.285c0,0.942-0.388,1.803-1.01,2.427l-0.004,0.004c-0.624,0.622-1.482,1.009-2.427,1.009H14.373
		c-0.908,0-1.743-0.361-2.36-0.947l-0.07-0.063c-0.623-0.623-1.011-1.486-1.011-2.43V38.462z"/>
	<path fill-rule="evenodd" clip-rule="evenodd" fill="#3B434F" d="M63.983,49.347c0.529,0,0.961,0.431,0.961,0.961
		s-0.431,0.961-0.961,0.961h-3.394c-0.53,0-0.961-0.431-0.961-0.961s0.431-0.961,0.961-0.961H63.983L63.983,49.347z M45.678,49.347
		c0.53,0,0.961,0.431,0.961,0.961s-0.431,0.961-0.961,0.961H19.334c-0.529,0-0.961-0.431-0.961-0.961s0.431-0.961,0.961-0.961
		H45.678z"/>
</g>
<g>
</g>
<g>
</g>
<g>
</g>
<g>
</g>
<g>
</g>
<g>
</g>
<g>
</g>
<g>
</g>
<g>
</g>
<g>
</g>
<g>
</g>
<g>
</g>
<g>
</g>
<g>
</g>
<g>
</g>
</svg>
