<?xml version="1.0" encoding="utf-8"?>
<!-- Generator: Adobe Illustrator 17.0.0, SVG Export Plug-In . SVG Version: 6.00 Build 0)  -->
<!DOCTYPE svg PUBLIC "-//W3C//DTD SVG 1.1//EN" "http://www.w3.org/Graphics/SVG/1.1/DTD/svg11.dtd">
<svg version="1.1" id="Layer_1" xmlns="http://www.w3.org/2000/svg" xmlns:xlink="http://www.w3.org/1999/xlink" x="0px" y="0px"
	 width="87px" height="84px" viewBox="0 0 87 84" enable-background="new 0 0 87 84" xml:space="preserve">
<g>
	<path fill-rule="evenodd" clip-rule="evenodd" fill="#3B434F" d="M532.994,434.096c-2.859,0-5.448,1.16-7.321,3.033l-0.045,0.041
		c-1.846,1.871-2.988,4.443-2.988,7.281c0,2.859,1.16,5.448,3.033,7.321c1.873,1.873,4.462,3.033,7.321,3.033
		c2.859,0,5.448-1.16,7.321-3.033c1.873-1.873,3.032-4.462,3.032-7.321c0-2.86-1.159-5.45-3.03-7.324l-0.002,0.002
		C538.443,435.256,535.853,434.096,532.994,434.096L532.994,434.096z M524.444,435.899c2.187-2.187,5.211-3.542,8.55-3.542
		s6.364,1.355,8.551,3.542l-0.002,0.002l0.002,0.002c2.188,2.189,3.541,5.211,3.541,8.548c0,3.339-1.355,6.363-3.541,8.55
		c-2.187,2.187-5.211,3.541-8.551,3.541s-6.363-1.355-8.55-3.541c-2.187-2.187-3.541-5.211-3.541-8.55
		c0-3.31,1.333-6.309,3.489-8.494L524.444,435.899z"/>
	<path fill-rule="evenodd" clip-rule="evenodd" fill="#3B434F" d="M532.994,438.586c-0.69,0-1.315,0.28-1.766,0.732
		c-0.451,0.452-0.732,1.077-0.732,1.766c0,0.69,0.28,1.315,0.732,1.766c0.452,0.451,1.077,0.732,1.766,0.732
		c0.69,0,1.315-0.28,1.766-0.732c0.451-0.452,0.732-1.077,0.732-1.766c0-0.69-0.28-1.315-0.732-1.766
		C534.309,438.866,533.684,438.586,532.994,438.586L532.994,438.586z M529.999,438.088c0.766-0.766,1.826-1.241,2.996-1.241
		s2.23,0.475,2.996,1.241c0.766,0.766,1.241,1.826,1.241,2.996s-0.475,2.23-1.241,2.996c-0.766,0.766-1.826,1.241-2.996,1.241
		s-2.23-0.475-2.996-1.241c-0.766-0.766-1.241-1.826-1.241-2.996S529.233,438.854,529.999,438.088z"/>
	<path fill-rule="evenodd" clip-rule="evenodd" fill="#3B434F" d="M528.607,447.289c-0.184,0.205-0.35,0.422-0.5,0.649
		c-0.198,0.299-0.371,0.617-0.513,0.949c0.607,0.736,1.359,1.349,2.214,1.787c0.95,0.487,2.034,0.764,3.186,0.764
		c1.153,0,2.236-0.276,3.186-0.764c0.855-0.438,1.609-1.05,2.215-1.786c-0.14-0.328-0.313-0.646-0.513-0.946l-0.033-0.053
		c-0.143-0.209-0.298-0.411-0.467-0.6c-0.523,0.37-1.096,0.677-1.702,0.907c-0.84,0.317-1.747,0.492-2.686,0.492
		c-0.939,0-1.846-0.174-2.686-0.492C529.702,447.965,529.129,447.66,528.607,447.289L528.607,447.289z M526.662,446.981
		c0.371-0.558,0.812-1.063,1.306-1.499l0.001,0.001c0.323-0.285,0.815-0.289,1.146,0.002c0.526,0.464,1.137,0.836,1.805,1.089
		c0.638,0.241,1.339,0.374,2.074,0.374c0.735,0,1.436-0.133,2.074-0.374c0.661-0.249,1.268-0.617,1.79-1.075
		c0.322-0.301,0.827-0.312,1.164-0.014c0.477,0.421,0.905,0.905,1.263,1.433l0.042,0.058c0.359,0.539,0.655,1.139,0.87,1.779h-0.001
		c0.085,0.256,0.051,0.547-0.118,0.781c-0.805,1.118-1.873,2.043-3.11,2.677c-1.196,0.614-2.548,0.96-3.975,0.96
		c-1.426,0-2.779-0.347-3.975-0.96c-1.236-0.634-2.305-1.559-3.109-2.677c-0.157-0.219-0.211-0.507-0.119-0.781
		C526.005,448.121,526.302,447.523,526.662,446.981z"/>
	<path fill-rule="evenodd" clip-rule="evenodd" fill="#3B434F" d="M517.283,461.033c-2.859,0-5.448,1.16-7.321,3.032
		c-1.873,1.873-3.032,4.462-3.032,7.321c0,2.859,1.159,5.448,3.032,7.321c1.873,1.873,4.462,3.033,7.321,3.033
		c2.859,0,5.448-1.16,7.321-3.033c1.873-1.873,3.032-4.462,3.032-7.321c0-2.859-1.16-5.448-3.032-7.321
		C522.731,462.192,520.142,461.033,517.283,461.033L517.283,461.033z M508.732,462.836c2.187-2.187,5.211-3.541,8.551-3.541
		c3.339,0,6.364,1.355,8.551,3.541c2.187,2.187,3.541,5.211,3.541,8.551c0,3.339-1.354,6.363-3.541,8.55
		c-2.187,2.187-5.211,3.541-8.551,3.541c-3.339,0-6.364-1.355-8.551-3.541c-2.186-2.187-3.541-5.211-3.541-8.55
		C505.191,468.047,506.546,465.023,508.732,462.836z"/>
	<path fill-rule="evenodd" clip-rule="evenodd" fill="#3B434F" d="M517.283,465.521c-0.69,0-1.315,0.28-1.766,0.732
		c-0.451,0.452-0.732,1.077-0.732,1.766c0,0.69,0.28,1.315,0.732,1.766c0.452,0.451,1.077,0.732,1.766,0.732
		c0.692,0,1.317-0.278,1.765-0.728l0.002-0.002l-0.002-0.002c0.452-0.452,0.732-1.077,0.732-1.766c0-0.69-0.28-1.315-0.732-1.766
		l-0.044-0.047C518.56,465.782,517.952,465.521,517.283,465.521L517.283,465.521z M514.287,465.024
		c0.766-0.766,1.826-1.241,2.996-1.241c1.138,0,2.173,0.452,2.935,1.186l0.06,0.054c0.766,0.766,1.241,1.826,1.241,2.996
		s-0.475,2.23-1.241,2.996l-0.002-0.002c-0.768,0.768-1.826,1.243-2.993,1.243c-1.17,0-2.23-0.475-2.996-1.241
		c-0.766-0.766-1.241-1.826-1.241-2.996S513.522,465.789,514.287,465.024z"/>
	<path fill-rule="evenodd" clip-rule="evenodd" fill="#3B434F" d="M512.895,474.224c-0.182,0.204-0.349,0.422-0.5,0.649
		l-0.002,0.003l0.002,0.001c-0.2,0.301-0.373,0.617-0.513,0.946c0.605,0.736,1.359,1.348,2.214,1.786
		c0.95,0.487,2.035,0.764,3.188,0.764c1.153,0,2.236-0.276,3.186-0.764c0.855-0.438,1.609-1.05,2.215-1.786
		c-0.143-0.333-0.316-0.652-0.514-0.951c-0.151-0.228-0.318-0.444-0.5-0.649c-0.523,0.37-1.096,0.677-1.703,0.907
		c-0.84,0.317-1.746,0.492-2.685,0.492c-0.939,0-1.846-0.174-2.686-0.492C513.991,474.901,513.418,474.594,512.895,474.224
		L512.895,474.224z M510.952,473.914c0.362-0.545,0.798-1.045,1.288-1.479c0.321-0.301,0.826-0.31,1.163-0.013
		c0.525,0.464,1.138,0.836,1.806,1.088c0.638,0.241,1.339,0.375,2.074,0.375c0.735,0,1.435-0.133,2.073-0.375
		c0.661-0.249,1.268-0.616,1.79-1.074c0.322-0.301,0.827-0.312,1.164-0.014c0.497,0.438,0.938,0.943,1.305,1.495
		c0.36,0.544,0.657,1.141,0.87,1.777h-0.001c0.085,0.255,0.051,0.547-0.118,0.781c-0.804,1.12-1.872,2.043-3.108,2.677
		c-1.196,0.614-2.548,0.961-3.975,0.961c-1.426,0-2.78-0.347-3.976-0.961c-1.237-0.634-2.304-1.558-3.108-2.677
		c-0.157-0.219-0.211-0.507-0.119-0.781c0.216-0.64,0.511-1.241,0.87-1.78L510.952,473.914z"/>
	<path fill-rule="evenodd" clip-rule="evenodd" fill="#3B434F" d="M548.707,461.033c-2.859,0-5.448,1.16-7.321,3.032
		c-1.873,1.873-3.033,4.462-3.033,7.321c0,2.859,1.16,5.448,3.033,7.321c1.873,1.873,4.462,3.033,7.321,3.033
		c2.858,0,5.448-1.16,7.321-3.033c1.873-1.873,3.033-4.462,3.033-7.321c0-2.859-1.16-5.448-3.033-7.321
		C554.155,462.192,551.566,461.033,548.707,461.033L548.707,461.033z M540.156,462.836c2.187-2.187,5.211-3.541,8.551-3.541
		c3.339,0,6.363,1.355,8.55,3.541c2.187,2.187,3.542,5.211,3.542,8.551c0,3.339-1.355,6.363-3.542,8.55
		c-2.187,2.187-5.211,3.541-8.55,3.541c-3.339,0-6.364-1.355-8.551-3.541c-2.187-2.187-3.542-5.211-3.542-8.55
		C536.615,468.047,537.97,465.023,540.156,462.836z"/>
	<path fill-rule="evenodd" clip-rule="evenodd" fill="#3B434F" d="M548.707,465.521c-0.69,0-1.315,0.28-1.766,0.732
		c-0.452,0.452-0.732,1.077-0.732,1.766c0,0.69,0.28,1.315,0.732,1.766c0.451,0.451,1.076,0.732,1.766,0.732
		c0.691,0,1.316-0.278,1.765-0.728l0.002-0.002l-0.002-0.002c0.451-0.452,0.732-1.077,0.732-1.766c0-0.69-0.28-1.315-0.732-1.766
		l-0.044-0.047C549.983,465.782,549.376,465.521,548.707,465.521L548.707,465.521z M545.712,465.024
		c0.766-0.766,1.826-1.241,2.996-1.241c1.138,0,2.172,0.452,2.934,1.186l0.06,0.054c0.766,0.766,1.241,1.826,1.241,2.996
		s-0.475,2.23-1.241,2.996l-0.002-0.002c-0.768,0.768-1.826,1.243-2.992,1.243c-1.17,0-2.23-0.475-2.996-1.241
		c-0.766-0.766-1.241-1.826-1.241-2.996S544.946,465.789,545.712,465.024z"/>
	<path fill-rule="evenodd" clip-rule="evenodd" fill="#3B434F" d="M544.319,474.224c-0.182,0.204-0.349,0.422-0.5,0.649
		l-0.002,0.003l0.002,0.001c-0.2,0.301-0.372,0.617-0.513,0.946c0.606,0.736,1.359,1.348,2.214,1.786
		c0.95,0.487,2.035,0.764,3.188,0.764c1.152,0,2.236-0.276,3.186-0.764c0.855-0.438,1.607-1.05,2.214-1.786
		c-0.142-0.331-0.314-0.649-0.513-0.947l-0.034-0.054c-0.143-0.209-0.299-0.409-0.466-0.598c-0.523,0.37-1.096,0.677-1.702,0.907
		c-0.84,0.317-1.746,0.492-2.684,0.492c-0.939,0-1.846-0.174-2.686-0.492C545.415,474.901,544.842,474.594,544.319,474.224
		L544.319,474.224z M542.376,473.914c0.362-0.545,0.798-1.045,1.288-1.479c0.321-0.301,0.826-0.31,1.163-0.013
		c0.526,0.464,1.138,0.836,1.806,1.088c0.638,0.241,1.339,0.375,2.074,0.375c0.734,0,1.434-0.133,2.072-0.375
		c0.661-0.249,1.268-0.616,1.79-1.074c0.322-0.301,0.827-0.312,1.164-0.014c0.477,0.422,0.902,0.903,1.261,1.431l0.044,0.06
		c0.36,0.541,0.656,1.14,0.871,1.778l-0.002,0.001c0.086,0.257,0.052,0.548-0.117,0.783c-0.805,1.118-1.873,2.043-3.11,2.677
		c-1.196,0.614-2.548,0.961-3.974,0.961c-1.427,0-2.78-0.347-3.976-0.961c-1.237-0.634-2.304-1.558-3.109-2.677
		c-0.157-0.219-0.211-0.507-0.119-0.781c0.215-0.64,0.511-1.241,0.87-1.78L542.376,473.914z"/>
	<path fill-rule="evenodd" clip-rule="evenodd" fill="#3B434F" d="M542.165,458.419c0.239,0.414,0.097,0.945-0.316,1.184
		c-0.414,0.239-0.945,0.098-1.184-0.316l-0.549-0.943l-0.549-0.943c-0.239-0.414-0.097-0.945,0.316-1.184
		c0.414-0.239,0.945-0.098,1.184,0.316l0.549,0.943L542.165,458.419z"/>
	<path fill-rule="evenodd" clip-rule="evenodd" fill="#3B434F" d="M531.872,472.256c-0.479,0-0.869-0.39-0.869-0.869
		s0.39-0.869,0.869-0.869h2.245c0.479,0,0.869,0.39,0.869,0.869s-0.39,0.869-0.869,0.869H531.872z"/>
	<path fill-rule="evenodd" clip-rule="evenodd" fill="#3B434F" d="M525.326,459.287c-0.239,0.414-0.771,0.555-1.184,0.316
		s-0.555-0.771-0.316-1.184l0.549-0.943l0.549-0.943c0.239-0.414,0.771-0.555,1.184-0.316c0.414,0.239,0.555,0.771,0.316,1.184
		l-0.549,0.943L525.326,459.287z"/>
</g>
<g>
	<path fill-rule="evenodd" clip-rule="evenodd" fill="#3B434F" d="M37.764,65.871c-0.56,0-1.015-0.455-1.015-1.015
		c0-0.559,0.455-1.015,1.015-1.015h11.791c0.56,0,1.015,0.455,1.015,1.015c0,0.56-0.455,1.015-1.015,1.015H37.764z"/>
	<path fill-rule="evenodd" clip-rule="evenodd" fill="#3B434F" d="M39.073,69.895c-0.559,0-1.015-0.455-1.015-1.015
		c0-0.56,0.455-1.015,1.015-1.015h9.172c0.56,0,1.015,0.455,1.015,1.015c0,0.559-0.455,1.015-1.015,1.015H39.073z"/>
	<path fill-rule="evenodd" clip-rule="evenodd" fill="#3B434F" d="M42.704,55.873c0,0.557-0.453,1.01-1.01,1.01
		s-1.01-0.453-1.01-1.01c-0.004-4.271-0.127-7.462-0.717-10.417c-0.582-2.92-1.628-5.628-3.481-8.967
		c-0.271-0.488-0.096-1.103,0.392-1.374c0.488-0.271,1.104-0.096,1.375,0.392c1.968,3.547,3.081,6.433,3.703,9.554
		C42.571,48.143,42.699,51.452,42.704,55.873z"/>
	<path fill-rule="evenodd" clip-rule="evenodd" fill="#3B434F" d="M46.634,55.873c0,0.557-0.453,1.01-1.01,1.01
		s-1.01-0.453-1.01-1.01c0.005-4.421,0.133-7.728,0.747-10.812c0.622-3.121,1.735-6.007,3.703-9.554
		c0.271-0.488,0.887-0.662,1.374-0.392c0.488,0.271,0.662,0.887,0.392,1.374c-1.852,3.338-2.898,6.047-3.48,8.967
		C46.761,48.41,46.637,51.602,46.634,55.873z"/>
	<path fill-rule="evenodd" clip-rule="evenodd" fill="#3B434F" d="M37.061,36.962c-0.532-0.17-0.824-0.74-0.654-1.272
		c0.17-0.532,0.74-0.824,1.273-0.654c0.706,0.229,1.317,0.534,1.881,0.818l0.055,0.03c0.882,0.443,1.614,0.791,2.159,0.347
		l1.247-1.017c0.433-0.351,1.071-0.285,1.422,0.147c0.351,0.433,0.285,1.071-0.147,1.422L43.049,37.8
		c-1.553,1.265-2.824,0.648-4.353-0.119L38.65,37.66C38.154,37.411,37.617,37.141,37.061,36.962z"/>
	<path fill-rule="evenodd" clip-rule="evenodd" fill="#3B434F" d="M44.674,13.948c0,0.56-0.455,1.015-1.015,1.015
		c-0.559,0-1.015-0.455-1.015-1.015v-3.931c0-0.559,0.455-1.015,1.015-1.015c0.56,0,1.015,0.455,1.015,1.015V13.948z"/>
	<path fill-rule="evenodd" clip-rule="evenodd" fill="#3B434F" d="M49.638,35.035c0.532-0.17,1.102,0.122,1.272,0.654
		c0.17,0.532-0.122,1.102-0.654,1.272c-0.556,0.18-1.093,0.449-1.588,0.698l-0.047,0.022c-1.529,0.767-2.8,1.383-4.353,0.119
		l-1.247-1.017c-0.432-0.351-0.498-0.99-0.147-1.422c0.351-0.432,0.99-0.498,1.422-0.147l1.247,1.017
		c0.545,0.443,1.277,0.096,2.159-0.347l0.055-0.03C48.322,35.569,48.933,35.264,49.638,35.035z"/>
	<path fill-rule="evenodd" clip-rule="evenodd" fill="#3B434F" d="M56.42,24.769c3.265,3.265,5.286,7.778,5.286,12.761
		c0,1.949-0.313,3.832-0.886,5.595c-0.594,1.825-1.475,3.525-2.585,5.042c-1.862,2.547-3.372,4.218-4.547,5.518
		c-2.111,2.335-3.036,3.359-3.036,6.773c0,0.56-0.455,1.015-1.015,1.015h-0.026h-5.911h-5.937c-0.56,0-1.015-0.455-1.015-1.015
		c0-3.382-0.944-4.415-3.042-6.712l-0.001-0.002l-0.002,0.002c-1.185-1.297-2.711-2.969-4.62-5.579
		c-1.109-1.518-1.99-3.22-2.585-5.044c-0.574-1.763-0.887-3.647-0.887-5.594c0-2.438,0.488-4.771,1.371-6.901L27,30.589
		c0.918-2.198,2.253-4.175,3.898-5.82c1.657-1.657,3.646-2.997,5.859-3.914v-0.001c2.131-0.884,4.463-1.371,6.901-1.371
		c2.434,0,4.766,0.488,6.897,1.371C52.771,21.771,54.763,23.112,56.42,24.769L56.42,24.769z M59.677,37.531
		c0-4.423-1.794-8.428-4.692-11.326c-1.482-1.482-3.247-2.674-5.198-3.481c-1.881-0.779-3.951-1.21-6.128-1.21
		c-2.174,0-4.245,0.431-6.124,1.21v-0.001l-0.004,0.001c-1.952,0.807-3.716,1.999-5.198,3.481c-1.468,1.468-2.652,3.217-3.461,5.148
		l-0.022,0.054c-0.779,1.88-1.21,3.95-1.21,6.124c0,1.738,0.277,3.41,0.784,4.969c0.53,1.621,1.309,3.13,2.291,4.473
		c1.832,2.506,3.324,4.14,4.485,5.411l-0.002,0.001c2.256,2.467,3.378,3.7,3.555,7.059h4.948h4.948
		c0.174-3.383,1.275-4.605,3.543-7.112c1.132-1.253,2.589-2.865,4.412-5.36c0.981-1.343,1.761-2.851,2.289-4.472
		C59.4,40.942,59.677,39.27,59.677,37.531z"/>
	<path fill-rule="evenodd" clip-rule="evenodd" fill="#3B434F" d="M40.384,73.92c-0.56,0-1.015-0.455-1.015-1.015
		c0-0.559,0.455-1.015,1.015-1.015h6.551c0.56,0,1.015,0.455,1.015,1.015c0,0.56-0.455,1.015-1.015,1.015H40.384z"/>
	<path fill-rule="evenodd" clip-rule="evenodd" fill="#3B434F" d="M56.104,17.551c-0.277,0.483-0.896,0.649-1.379,0.373
		c-0.483-0.277-0.649-0.896-0.373-1.379l1.965-3.404c0.277-0.483,0.896-0.649,1.379-0.373c0.483,0.277,0.649,0.896,0.373,1.379
		L56.104,17.551z"/>
	<path fill-rule="evenodd" clip-rule="evenodd" fill="#3B434F" d="M32.965,16.544c0.277,0.483,0.11,1.102-0.373,1.379
		c-0.483,0.277-1.102,0.11-1.379-0.373l-1.965-3.403c-0.277-0.483-0.11-1.102,0.373-1.379c0.483-0.277,1.102-0.11,1.379,0.373
		L32.965,16.544z"/>
	<path fill-rule="evenodd" clip-rule="evenodd" fill="#3B434F" d="M24.125,24.641c0.483,0.277,0.649,0.896,0.373,1.379
		c-0.277,0.483-0.896,0.649-1.379,0.373l-3.405-1.965c-0.483-0.277-0.649-0.896-0.373-1.379c0.277-0.483,0.896-0.649,1.379-0.373
		L24.125,24.641z"/>
	<path fill-rule="evenodd" clip-rule="evenodd" fill="#3B434F" d="M64.2,26.392c-0.483,0.277-1.102,0.11-1.379-0.373
		c-0.277-0.483-0.11-1.102,0.373-1.379l3.403-1.965c0.483-0.277,1.102-0.11,1.379,0.373c0.277,0.483,0.11,1.102-0.373,1.379
		L64.2,26.392z"/>
	<path fill-rule="evenodd" clip-rule="evenodd" fill="#3B434F" d="M33.121,41.54c0.216,0.514-0.025,1.107-0.539,1.323
		c-0.514,0.216-1.107-0.025-1.323-0.539c-0.344-0.816-0.612-1.676-0.791-2.564c-0.176-0.877-0.271-1.774-0.271-2.673
		c0-0.559,0.455-1.015,1.015-1.015c0.56,0,1.015,0.455,1.015,1.015c0,0.793,0.078,1.556,0.223,2.278
		C32.601,40.118,32.83,40.849,33.121,41.54L33.121,41.54z M33.121,32.632c-0.216,0.514-0.809,0.755-1.322,0.539
		c-0.514-0.216-0.755-0.809-0.539-1.323c0.34-0.805,0.756-1.568,1.233-2.276l0.001-0.002l-0.001-0.001
		c0.489-0.724,1.042-1.396,1.648-2.002c0.6-0.6,1.272-1.154,2.003-1.646l-0.001-0.001c0.702-0.473,1.468-0.889,2.281-1.233
		c0.813-0.344,1.672-0.612,2.561-0.791c0.878-0.177,1.777-0.271,2.675-0.271c0.56,0,1.015,0.455,1.015,1.015
		c0,0.56-0.455,1.015-1.015,1.015c-0.794,0-1.558,0.078-2.28,0.223c-0.754,0.151-1.483,0.38-2.173,0.671
		c-0.669,0.283-1.317,0.637-1.931,1.051l-0.001-0.001l-0.002,0.001c-0.599,0.403-1.169,0.876-1.696,1.403
		c-0.522,0.522-0.996,1.095-1.404,1.7l-0.001-0.001C33.759,31.31,33.406,31.959,33.121,32.632z"/>
</g>
<g>
</g>
<g>
</g>
<g>
</g>
<g>
</g>
<g>
</g>
<g>
</g>
<g>
</g>
<g>
</g>
<g>
</g>
<g>
</g>
<g>
</g>
<g>
</g>
<g>
</g>
<g>
</g>
<g>
</g>
</svg>
